<?xml version="1.0" encoding="UTF-8" standalone="no"?>
<!-- Created with Inkscape (http://www.inkscape.org/) -->

<svg
   width="84.257729mm"
   height="68.360054mm"
   viewBox="0 0 84.257729 68.360054"
   version="1.1"
   id="svg1"
   xml:space="preserve"
   inkscape:version="1.3.2 (091e20ef0f, 2023-11-25, custom)"
   sodipodi:docname="pipeline.svg"
   xmlns:inkscape="http://www.inkscape.org/namespaces/inkscape"
   xmlns:sodipodi="http://sodipodi.sourceforge.net/DTD/sodipodi-0.dtd"
   xmlns="http://www.w3.org/2000/svg"
   xmlns:svg="http://www.w3.org/2000/svg"><sodipodi:namedview
     id="namedview1"
     pagecolor="#ffffff"
     bordercolor="#000000"
     borderopacity="0.25"
     inkscape:showpageshadow="2"
     inkscape:pageopacity="0.0"
     inkscape:pagecheckerboard="0"
     inkscape:deskcolor="#d1d1d1"
     inkscape:document-units="mm"
     inkscape:zoom="0.80176768"
     inkscape:cx="184.59213"
     inkscape:cy="275.64094"
     inkscape:window-width="1920"
     inkscape:window-height="1128"
     inkscape:window-x="0"
     inkscape:window-y="0"
     inkscape:window-maximized="1"
     inkscape:current-layer="g1"><inkscape:page
       x="0"
       y="0"
       width="84.257729"
       height="68.360054"
       id="page1"
       margin="0"
       bleed="0" /></sodipodi:namedview><defs
     id="defs1"><clipPath
       clipPathUnits="userSpaceOnUse"
       id="clipPath2"><path
         d="M 0,0 H 1196.875 V 946.875 H 0 Z"
         transform="scale(0.31999999)"
         clip-rule="evenodd"
         id="path2" /></clipPath><clipPath
       clipPathUnits="userSpaceOnUse"
       id="clipPath4"><path
         d="M 81.25,62.5 H 1112.5 V 881.25 H 81.25 Z"
         transform="matrix(0.37280057,0,0,0.37280057,27.04352,14.534959)"
         clip-rule="evenodd"
         id="path4" /></clipPath><clipPath
       clipPathUnits="userSpaceOnUse"
       id="clipPath6"><path
         d="M 81.25,62.5 H 1112.5 V 881.25 H 81.25 Z"
         transform="matrix(0.37280057,0,0,0.37280057,27.04352,14.534959)"
         clip-rule="evenodd"
         id="path6" /></clipPath><clipPath
       clipPathUnits="userSpaceOnUse"
       id="clipPath8"><path
         d="M 81.25,62.5 H 1112.5 V 881.25 H 81.25 Z"
         transform="matrix(0.37280057,0,0,0.37280057,27.04352,14.534959)"
         clip-rule="evenodd"
         id="path8" /></clipPath><clipPath
       clipPathUnits="userSpaceOnUse"
       id="clipPath10"><path
         d="M 81.25,62.5 H 1112.5 V 881.25 H 81.25 Z"
         transform="matrix(0.37280057,0,0,0.37280057,27.04352,14.534959)"
         clip-rule="evenodd"
         id="path10" /></clipPath><clipPath
       clipPathUnits="userSpaceOnUse"
       id="clipPath12"><path
         d="M 81.25,62.5 H 1112.5 V 881.25 H 81.25 Z"
         transform="matrix(0.37280057,0,0,0.37280057,27.04352,14.534959)"
         clip-rule="evenodd"
         id="path12" /></clipPath><clipPath
       clipPathUnits="userSpaceOnUse"
       id="clipPath14"><path
         d="M 81.25,62.5 H 1112.5 V 881.25 H 81.25 Z"
         transform="matrix(0.37280057,0,0,0.37280057,27.04352,14.534959)"
         clip-rule="evenodd"
         id="path14" /></clipPath><clipPath
       clipPathUnits="userSpaceOnUse"
       id="clipPath16"><path
         d="M 81.25,62.5 H 1112.5 V 881.25 H 81.25 Z"
         transform="matrix(0.37280057,0,0,0.37280057,27.04352,14.534959)"
         clip-rule="evenodd"
         id="path16" /></clipPath><clipPath
       clipPathUnits="userSpaceOnUse"
       id="clipPath18"><path
         d="M 81.25,62.5 H 1112.5 V 881.25 H 81.25 Z"
         transform="matrix(0.37280057,0,0,0.37280057,27.543521,15.034959)"
         clip-rule="evenodd"
         id="path18" /></clipPath><clipPath
       clipPathUnits="userSpaceOnUse"
       id="clipPath20"><path
         d="M 81.25,62.5 H 1112.5 V 881.25 H 81.25 Z"
         transform="matrix(0.37280057,0,0,0.37280057,27.04352,14.534959)"
         clip-rule="evenodd"
         id="path20" /></clipPath><clipPath
       clipPathUnits="userSpaceOnUse"
       id="clipPath22"><path
         d="M 81.25,62.5 H 1112.5 V 881.25 H 81.25 Z"
         transform="matrix(0.37280057,0,0,0.37280057,27.04352,14.534959)"
         clip-rule="evenodd"
         id="path22" /></clipPath><clipPath
       clipPathUnits="userSpaceOnUse"
       id="clipPath24"><path
         d="M 81.25,62.5 H 1112.5 V 881.25 H 81.25 Z"
         transform="matrix(0.37280057,0,0,0.37280057,27.04352,14.534959)"
         clip-rule="evenodd"
         id="path24" /></clipPath><clipPath
       clipPathUnits="userSpaceOnUse"
       id="clipPath26"><path
         d="M 81.25,62.5 H 1112.5 V 881.25 H 81.25 Z"
         transform="matrix(0.37280057,0,0,0.37280057,27.04352,14.534959)"
         clip-rule="evenodd"
         id="path26" /></clipPath><clipPath
       clipPathUnits="userSpaceOnUse"
       id="clipPath28"><path
         d="M 81.25,62.5 H 1112.5 V 881.25 H 81.25 Z"
         transform="matrix(0.37280057,0,0,0.37280057,27.04352,14.534959)"
         clip-rule="evenodd"
         id="path28" /></clipPath><clipPath
       clipPathUnits="userSpaceOnUse"
       id="clipPath30"><path
         d="M 81.25,62.5 H 1112.5 V 881.25 H 81.25 Z"
         transform="matrix(0.37280057,0,0,0.37280057,27.04352,14.534959)"
         clip-rule="evenodd"
         id="path30" /></clipPath><clipPath
       clipPathUnits="userSpaceOnUse"
       id="clipPath32"><path
         d="M 81.25,62.5 H 1112.5 V 881.25 H 81.25 Z"
         transform="matrix(0.37280057,0,0,0.37280057,27.04352,14.534959)"
         clip-rule="evenodd"
         id="path32" /></clipPath><clipPath
       clipPathUnits="userSpaceOnUse"
       id="clipPath34"><path
         d="M 81.25,62.5 H 1112.5 V 881.25 H 81.25 Z"
         transform="matrix(0.37280057,0,0,0.37280057,27.04352,14.534959)"
         clip-rule="evenodd"
         id="path34" /></clipPath><clipPath
       clipPathUnits="userSpaceOnUse"
       id="clipPath36"><path
         d="M 81.25,62.5 H 1112.5 V 881.25 H 81.25 Z"
         transform="matrix(0.37280057,0,0,0.37280057,27.04352,14.534959)"
         clip-rule="evenodd"
         id="path36" /></clipPath><clipPath
       clipPathUnits="userSpaceOnUse"
       id="clipPath38"><path
         d="M 81.25,62.5 H 1112.5 V 881.25 H 81.25 Z"
         transform="matrix(0.37280057,0,0,0.37280057,27.04352,14.534959)"
         clip-rule="evenodd"
         id="path38" /></clipPath><clipPath
       clipPathUnits="userSpaceOnUse"
       id="clipPath40"><path
         d="M 81.25,62.5 H 1112.5 V 881.25 H 81.25 Z"
         transform="matrix(0.37280057,0,0,0.37280057,27.04352,14.534959)"
         clip-rule="evenodd"
         id="path40" /></clipPath><clipPath
       clipPathUnits="userSpaceOnUse"
       id="clipPath42"><path
         d="M 81.25,62.5 H 1112.5 V 881.25 H 81.25 Z"
         transform="matrix(0.37280057,0,0,0.37280057,27.04352,14.534959)"
         clip-rule="evenodd"
         id="path42" /></clipPath><clipPath
       clipPathUnits="userSpaceOnUse"
       id="clipPath44"><path
         d="M 81.25,62.5 H 1112.5 V 881.25 H 81.25 Z"
         transform="matrix(0.37280057,0,0,0.37280057,27.04352,14.534959)"
         clip-rule="evenodd"
         id="path44" /></clipPath><clipPath
       clipPathUnits="userSpaceOnUse"
       id="clipPath46"><path
         d="M 81.25,62.5 H 1112.5 V 881.25 H 81.25 Z"
         transform="matrix(0.37280057,0,0,0.37280057,27.04352,14.534959)"
         clip-rule="evenodd"
         id="path46" /></clipPath><clipPath
       clipPathUnits="userSpaceOnUse"
       id="clipPath48"><path
         d="M 81.25,62.5 H 1112.5 V 881.25 H 81.25 Z"
         transform="matrix(0.37280057,0,0,0.37280057,27.04352,14.534959)"
         clip-rule="evenodd"
         id="path48" /></clipPath><clipPath
       clipPathUnits="userSpaceOnUse"
       id="clipPath50"><path
         d="M 81.25,62.5 H 1112.5 V 881.25 H 81.25 Z"
         transform="matrix(0.37280057,0,0,0.37280057,27.543521,15.034959)"
         clip-rule="evenodd"
         id="path50" /></clipPath><clipPath
       clipPathUnits="userSpaceOnUse"
       id="clipPath52"><path
         d="M 81.25,62.5 H 1112.5 V 881.25 H 81.25 Z"
         transform="matrix(0.37280057,0,0,0.37280057,27.04352,14.534959)"
         clip-rule="evenodd"
         id="path52" /></clipPath><clipPath
       clipPathUnits="userSpaceOnUse"
       id="clipPath54"><path
         d="M 81.25,62.5 H 1112.5 V 881.25 H 81.25 Z"
         transform="matrix(0.37280057,0,0,0.37280057,27.04352,14.534959)"
         clip-rule="evenodd"
         id="path54" /></clipPath><clipPath
       clipPathUnits="userSpaceOnUse"
       id="clipPath56"><path
         d="M 81.25,62.5 H 1112.5 V 881.25 H 81.25 Z"
         transform="matrix(0.37280057,0,0,0.37280057,27.04352,14.534959)"
         clip-rule="evenodd"
         id="path56" /></clipPath><clipPath
       clipPathUnits="userSpaceOnUse"
       id="clipPath58"><path
         d="M 81.25,62.5 H 1112.5 V 881.25 H 81.25 Z"
         transform="matrix(0.37280057,0,0,0.37280057,27.04352,14.534959)"
         clip-rule="evenodd"
         id="path58" /></clipPath><clipPath
       clipPathUnits="userSpaceOnUse"
       id="clipPath60"><path
         d="M 81.25,62.5 H 1112.5 V 881.25 H 81.25 Z"
         transform="matrix(0.37280057,0,0,0.37280057,27.04352,14.534959)"
         clip-rule="evenodd"
         id="path60" /></clipPath><clipPath
       clipPathUnits="userSpaceOnUse"
       id="clipPath62"><path
         d="M 81.25,62.5 H 1112.5 V 881.25 H 81.25 Z"
         transform="matrix(0.37280057,0,0,0.37280057,27.04352,14.534959)"
         clip-rule="evenodd"
         id="path62" /></clipPath><clipPath
       clipPathUnits="userSpaceOnUse"
       id="clipPath64"><path
         d="M 81.25,62.5 H 1112.5 V 881.25 H 81.25 Z"
         transform="matrix(0.37280057,0,0,0.37280057,27.04352,14.534959)"
         clip-rule="evenodd"
         id="path64" /></clipPath><clipPath
       clipPathUnits="userSpaceOnUse"
       id="clipPath66"><path
         d="M 81.25,62.5 H 1112.5 V 881.25 H 81.25 Z"
         transform="matrix(0.37280057,0,0,0.37280057,27.04352,14.534959)"
         clip-rule="evenodd"
         id="path66" /></clipPath><clipPath
       clipPathUnits="userSpaceOnUse"
       id="clipPath68"><path
         d="M 81.25,62.5 H 1112.5 V 881.25 H 81.25 Z"
         transform="matrix(0.37280057,0,0,0.37280057,27.04352,14.534959)"
         clip-rule="evenodd"
         id="path68" /></clipPath><clipPath
       clipPathUnits="userSpaceOnUse"
       id="clipPath70"><path
         d="M 81.25,62.5 H 1112.5 V 881.25 H 81.25 Z"
         transform="matrix(0.37280057,0,0,0.37280057,27.04352,14.534959)"
         clip-rule="evenodd"
         id="path70" /></clipPath><clipPath
       clipPathUnits="userSpaceOnUse"
       id="clipPath72"><path
         d="M 81.25,62.5 H 1112.5 V 881.25 H 81.25 Z"
         transform="matrix(0.37280057,0,0,0.37280057,27.04352,14.534959)"
         clip-rule="evenodd"
         id="path72" /></clipPath><clipPath
       clipPathUnits="userSpaceOnUse"
       id="clipPath74"><path
         d="M 81.25,62.5 H 1112.5 V 881.25 H 81.25 Z"
         transform="matrix(0.37280057,0,0,0.37280057,27.04352,14.534959)"
         clip-rule="evenodd"
         id="path74" /></clipPath><clipPath
       clipPathUnits="userSpaceOnUse"
       id="clipPath76"><path
         d="M 81.25,62.5 H 1112.5 V 881.25 H 81.25 Z"
         transform="matrix(31.800514,0,0,-31.800514,-6948.3744,5910.3514)"
         clip-rule="evenodd"
         id="path76" /></clipPath><clipPath
       clipPathUnits="userSpaceOnUse"
       id="clipPath78"><path
         d="M 81.25,62.5 H 1112.5 V 881.25 H 81.25 Z"
         transform="matrix(44.979511,0,0,-44.979511,-10680.869,7775.6031)"
         clip-rule="evenodd"
         id="path78" /></clipPath><clipPath
       clipPathUnits="userSpaceOnUse"
       id="clipPath80"><path
         d="M 81.25,62.5 H 1112.5 V 881.25 H 81.25 Z"
         transform="matrix(0.37280057,0,0,0.37280057,27.04352,14.534959)"
         clip-rule="evenodd"
         id="path80" /></clipPath><clipPath
       clipPathUnits="userSpaceOnUse"
       id="clipPath82"><path
         d="M 81.25,62.5 H 1112.5 V 881.25 H 81.25 Z"
         transform="matrix(0.37280057,0,0,0.37280057,27.04352,14.534959)"
         clip-rule="evenodd"
         id="path82" /></clipPath><clipPath
       clipPathUnits="userSpaceOnUse"
       id="clipPath84"><path
         d="M 81.25,62.5 H 1112.5 V 881.25 H 81.25 Z"
         transform="matrix(31.775852,0,0,-31.775852,-31661.288,5909.8528)"
         clip-rule="evenodd"
         id="path84" /></clipPath><clipPath
       clipPathUnits="userSpaceOnUse"
       id="clipPath86"><path
         d="M 81.25,62.5 H 1112.5 V 881.25 H 81.25 Z"
         transform="matrix(44.944639,0,0,-44.944639,-45635.493,7774.8994)"
         clip-rule="evenodd"
         id="path86" /></clipPath><clipPath
       clipPathUnits="userSpaceOnUse"
       id="clipPath88"><path
         d="M 81.25,62.5 H 1112.5 V 881.25 H 81.25 Z"
         transform="matrix(44.944639,0,0,-44.944639,-45980.494,7774.8994)"
         clip-rule="evenodd"
         id="path88" /></clipPath><clipPath
       clipPathUnits="userSpaceOnUse"
       id="clipPath90"><path
         d="M 81.25,62.5 H 1112.5 V 881.25 H 81.25 Z"
         transform="matrix(44.944639,0,0,-44.944639,-46758.5,7774.8994)"
         clip-rule="evenodd"
         id="path90" /></clipPath><clipPath
       clipPathUnits="userSpaceOnUse"
       id="clipPath92"><path
         d="M 81.25,62.5 H 1112.5 V 881.25 H 81.25 Z"
         transform="matrix(0.37280057,0,0,0.37280057,27.04352,14.534959)"
         clip-rule="evenodd"
         id="path92" /></clipPath><clipPath
       clipPathUnits="userSpaceOnUse"
       id="clipPath94"><path
         d="M 81.25,62.5 H 1112.5 V 881.25 H 81.25 Z"
         transform="matrix(0.37280057,0,0,0.37280057,27.04352,14.534959)"
         clip-rule="evenodd"
         id="path94" /></clipPath><clipPath
       clipPathUnits="userSpaceOnUse"
       id="clipPath96"><path
         d="M 81.25,62.5 H 1112.5 V 881.25 H 81.25 Z"
         transform="matrix(0.37280057,0,0,0.37280057,27.04352,14.534959)"
         clip-rule="evenodd"
         id="path96" /></clipPath><clipPath
       clipPathUnits="userSpaceOnUse"
       id="clipPath98"><path
         d="M 81.25,62.5 H 1112.5 V 881.25 H 81.25 Z"
         transform="matrix(0.37280057,0,0,0.37280057,27.04352,14.534959)"
         clip-rule="evenodd"
         id="path98" /></clipPath><clipPath
       clipPathUnits="userSpaceOnUse"
       id="clipPath100"><path
         d="M 81.25,62.5 H 1112.5 V 881.25 H 81.25 Z"
         transform="matrix(0.37280057,0,0,0.37280057,27.04352,14.534959)"
         clip-rule="evenodd"
         id="path100" /></clipPath><clipPath
       clipPathUnits="userSpaceOnUse"
       id="clipPath102"><path
         d="M 81.25,62.5 H 1112.5 V 881.25 H 81.25 Z"
         transform="matrix(0.37280057,0,0,0.37280057,27.04352,14.534959)"
         clip-rule="evenodd"
         id="path102" /></clipPath><clipPath
       clipPathUnits="userSpaceOnUse"
       id="clipPath104"><path
         d="M 81.25,62.5 H 1112.5 V 881.25 H 81.25 Z"
         transform="matrix(0.37280057,0,0,0.37280057,27.04352,14.534959)"
         clip-rule="evenodd"
         id="path104" /></clipPath><clipPath
       clipPathUnits="userSpaceOnUse"
       id="clipPath106"><path
         d="M 81.25,62.5 H 1112.5 V 881.25 H 81.25 Z"
         transform="matrix(0.37280057,0,0,0.37280057,27.04352,14.534959)"
         clip-rule="evenodd"
         id="path106" /></clipPath><clipPath
       clipPathUnits="userSpaceOnUse"
       id="clipPath108"><path
         d="M 81.25,62.5 H 1112.5 V 881.25 H 81.25 Z"
         transform="matrix(26.527375,0,0,-26.527375,-7005.8685,20577.048)"
         clip-rule="evenodd"
         id="path108" /></clipPath><clipPath
       clipPathUnits="userSpaceOnUse"
       id="clipPath110"><path
         d="M 81.25,62.5 H 1112.5 V 881.25 H 81.25 Z"
         transform="matrix(0.37280057,0,0,0.37280057,27.04352,14.534959)"
         clip-rule="evenodd"
         id="path110" /></clipPath><clipPath
       clipPathUnits="userSpaceOnUse"
       id="clipPath112"><path
         d="M 81.25,62.5 H 1112.5 V 881.25 H 81.25 Z"
         transform="matrix(26.523725,0,0,-26.523725,-9139.6259,20573.176)"
         clip-rule="evenodd"
         id="path112" /></clipPath><clipPath
       clipPathUnits="userSpaceOnUse"
       id="clipPath114"><path
         d="M 81.25,62.5 H 1112.5 V 881.25 H 81.25 Z"
         transform="matrix(0.37280057,0,0,0.37280057,27.04352,14.534959)"
         clip-rule="evenodd"
         id="path114" /></clipPath><clipPath
       clipPathUnits="userSpaceOnUse"
       id="clipPath116"><path
         d="M 81.25,62.5 H 1112.5 V 881.25 H 81.25 Z"
         transform="matrix(26.516538,0,0,-26.516538,-11341.811,20547.571)"
         clip-rule="evenodd"
         id="path116" /></clipPath><clipPath
       clipPathUnits="userSpaceOnUse"
       id="clipPath118"><path
         d="M 81.25,62.5 H 1112.5 V 881.25 H 81.25 Z"
         transform="matrix(0.37280057,0,0,0.37280057,27.04352,14.534959)"
         clip-rule="evenodd"
         id="path118" /></clipPath><clipPath
       clipPathUnits="userSpaceOnUse"
       id="clipPath120"><path
         d="M 81.25,62.5 H 1112.5 V 881.25 H 81.25 Z"
         transform="matrix(26.519219,0,0,-26.519219,-13122.036,20570.756)"
         clip-rule="evenodd"
         id="path120" /></clipPath><clipPath
       clipPathUnits="userSpaceOnUse"
       id="clipPath122"><path
         d="M 81.25,62.5 H 1112.5 V 881.25 H 81.25 Z"
         transform="matrix(37.509508,0,0,-37.509508,-19338.101,29308.002)"
         clip-rule="evenodd"
         id="path122" /></clipPath><clipPath
       clipPathUnits="userSpaceOnUse"
       id="clipPath124"><path
         d="M 81.25,62.5 H 1112.5 V 881.25 H 81.25 Z"
         transform="matrix(0.37280057,0,0,0.37280057,-84.456479,-313.96504)"
         clip-rule="evenodd"
         id="path124" /></clipPath><clipPath
       clipPathUnits="userSpaceOnUse"
       id="clipPath126"><path
         d="M 81.25,62.5 H 1112.5 V 881.25 H 81.25 Z"
         transform="matrix(0.37280057,0,0,0.37280057,-271.61272,-313.96504)"
         clip-rule="evenodd"
         id="path126" /></clipPath><clipPath
       clipPathUnits="userSpaceOnUse"
       id="clipPath128"><path
         d="M 81.25,62.5 H 1112.5 V 881.25 H 81.25 Z"
         transform="matrix(0.37280057,0,0,0.37280057,27.04352,14.534959)"
         clip-rule="evenodd"
         id="path128" /></clipPath><clipPath
       clipPathUnits="userSpaceOnUse"
       id="clipPath130"><path
         d="M 81.25,62.5 H 1112.5 V 881.25 H 81.25 Z"
         transform="matrix(0.37280057,0,0,0.37280057,27.04352,14.534959)"
         clip-rule="evenodd"
         id="path130" /></clipPath><clipPath
       clipPathUnits="userSpaceOnUse"
       id="clipPath132"><path
         d="M 81.25,62.5 H 1112.5 V 881.25 H 81.25 Z"
         transform="matrix(26.50211,0,0,-26.50211,-15458.816,20585.562)"
         clip-rule="evenodd"
         id="path132" /></clipPath><clipPath
       clipPathUnits="userSpaceOnUse"
       id="clipPath134"><path
         d="M 81.25,62.5 H 1112.5 V 881.25 H 81.25 Z"
         transform="matrix(0.37280057,0,0,0.37280057,27.04352,14.534959)"
         clip-rule="evenodd"
         id="path134" /></clipPath><clipPath
       clipPathUnits="userSpaceOnUse"
       id="clipPath136"><path
         d="M 81.25,62.5 H 1112.5 V 881.25 H 81.25 Z"
         transform="matrix(0.37280057,0,0,0.37280057,27.04352,14.534959)"
         clip-rule="evenodd"
         id="path136" /></clipPath><clipPath
       clipPathUnits="userSpaceOnUse"
       id="clipPath138"><path
         d="M 81.25,62.5 H 1112.5 V 881.25 H 81.25 Z"
         transform="matrix(26.523527,0,0,-26.523527,-17605.708,20601.923)"
         clip-rule="evenodd"
         id="path138" /></clipPath><clipPath
       clipPathUnits="userSpaceOnUse"
       id="clipPath140"><path
         d="M 81.25,62.5 H 1112.5 V 881.25 H 81.25 Z"
         transform="matrix(0.37280057,0,0,0.37280057,27.04352,14.534959)"
         clip-rule="evenodd"
         id="path140" /></clipPath><clipPath
       clipPathUnits="userSpaceOnUse"
       id="clipPath142"><path
         d="M 81.25,62.5 H 1112.5 V 881.25 H 81.25 Z"
         transform="matrix(0.37280057,0,0,0.37280057,27.04352,14.534959)"
         clip-rule="evenodd"
         id="path142" /></clipPath><clipPath
       clipPathUnits="userSpaceOnUse"
       id="clipPath144"><path
         d="M 81.25,62.5 H 1112.5 V 881.25 H 81.25 Z"
         transform="matrix(33.655089,0,0,-33.655089,-29562.814,7179.7434)"
         clip-rule="evenodd"
         id="path144" /></clipPath><clipPath
       clipPathUnits="userSpaceOnUse"
       id="clipPath146"><path
         d="M 81.25,62.5 H 1112.5 V 881.25 H 81.25 Z"
         transform="matrix(33.655089,0,0,-33.655089,-30243.813,7179.7434)"
         clip-rule="evenodd"
         id="path146" /></clipPath><clipPath
       clipPathUnits="userSpaceOnUse"
       id="clipPath148"><path
         d="M 81.25,62.5 H 1112.5 V 881.25 H 81.25 Z"
         transform="matrix(33.655089,0,0,-33.655089,-30709.812,7179.7434)"
         clip-rule="evenodd"
         id="path148" /></clipPath><clipPath
       clipPathUnits="userSpaceOnUse"
       id="clipPath150"><path
         d="M 81.25,62.5 H 1112.5 V 881.25 H 81.25 Z"
         transform="matrix(33.655089,0,0,-33.655089,-31238.811,7179.7434)"
         clip-rule="evenodd"
         id="path150" /></clipPath><clipPath
       clipPathUnits="userSpaceOnUse"
       id="clipPath152"><path
         d="M 81.25,62.5 H 1112.5 V 881.25 H 81.25 Z"
         transform="matrix(33.655089,0,0,-33.655089,-31689.812,7179.7434)"
         clip-rule="evenodd"
         id="path152" /></clipPath></defs><g
     inkscape:label="Layer 1"
     inkscape:groupmode="layer"
     id="layer1"
     transform="translate(-105.24739,-75.617063)" /><g
     id="g1"
     inkscape:groupmode="layer"
     inkscape:label="1"
     transform="matrix(0.26458333,0,0,0.26458334,114.75262,-75.617063)"><g
       id="g122" /><g
       id="g124" /><g
       id="g2"
       transform="translate(-461.14112,264.36757)"><path
         id="path3"
         d="m 101.64645,267.64645 2.12132,-2.1213 0.70711,0.70709 -2.12133,2.12131 m 3.53553,-4.94974 2.12133,-2.12131 0.7071,0.70709 -2.12132,2.12131 m 3.53554,-4.94974 2.12132,-2.1213 0.70711,0.70709 -2.12132,2.12131 m 3.53553,-4.94973 2.12132,-2.12132 0.70711,0.70709 -2.12133,2.12133 m 3.53554,-4.94974 2.12132,-2.12132 0.70711,0.70709 -2.12132,2.12132 m 3.53553,-4.94974 2.12132,-2.12132 0.70711,0.70709 -2.12132,2.12133 m 3.53553,-4.94973 2.12133,-2.12132 0.70709,0.70709 -2.12132,2.12133 m 3.53555,-4.94974 2.12132,-2.12133 0.70709,0.7071 -2.12132,2.12132 m 3.53555,-4.94974 2.12131,-2.12131 0.70709,0.7071 -2.1213,2.1213 m 3.53555,-4.94973 2.12131,-2.12131 0.70709,0.70709 -2.12131,2.12131 m 3.53554,-4.94972 2.12132,-2.12133 0.7071,0.7071 -2.12133,2.12132 m 3.53556,-4.94974 2.12132,-2.12132 0.70709,0.70709 -2.12132,2.12132"
         style="fill:#000000;fill-opacity:1;fill-rule:nonzero;stroke:none"
         transform="matrix(0.85836774,0,0,0.85836774,-23.213285,-12.47634)"
         clip-path="url(#clipPath4)" /><path
         id="path5"
         d="m 287.35355,217.64645 2.1213,2.12133 -0.70709,0.70709 -2.12131,-2.12132 m 4.94974,3.53555 2.12131,2.12132 -0.70709,0.70709 -2.12131,-2.12132 m 4.94974,3.53554 2.1213,2.12132 -0.70709,0.70709 -2.12131,-2.12132 m 4.94974,3.53555 2.12131,2.12133 -0.70709,0.70709 -2.12131,-2.12132 m 4.94971,3.53555 2.12133,2.12132 -0.70709,0.70709 -2.12134,-2.12132 m 4.94974,3.53555 2.12134,2.12133 -0.70709,0.70709 -2.12134,-2.12132 m 4.94974,3.53553 2.12134,2.12133 -0.7071,0.70709 -2.12134,-2.12132 m 4.94974,3.53555 2.12131,2.12132 -0.70709,0.7071 -2.12131,-2.12133 m 4.94974,3.53556 2.12131,2.1213 -0.7071,0.7071 -2.1213,-2.12131 m 4.94973,3.53555 2.12131,2.12131 -0.70709,0.70709 -2.12131,-2.12131 m 4.94974,3.53556 2.12131,2.1213 -0.7071,0.7071 -2.1213,-2.12131 m 4.94973,3.53555 2.12131,2.12131 -0.70709,0.70709 -2.12131,-2.12131"
         style="fill:#000000;fill-opacity:1;fill-rule:nonzero;stroke:none"
         transform="matrix(0.85836774,0,0,0.85836774,-23.213285,-12.47634)"
         clip-path="url(#clipPath6)" /><path
         id="path7"
         d="m 80,130 c 23.33334,0 35,-13.33333 35,-40 0,-26.666668 11.66666,-40 35,-40"
         style="fill:none;stroke:#000000;stroke-width:1;stroke-linecap:butt;stroke-linejoin:miter;stroke-miterlimit:10;stroke-dasharray:none;stroke-opacity:1"
         transform="matrix(0.85836774,0,0,0.85836774,-23.213285,-12.47634)"
         clip-path="url(#clipPath8)" /><path
         id="path9"
         d="m 80,130 c 23.33334,0 35,-6.66666 35,-20 0,-13.333336 11.66666,-20 35,-20"
         style="fill:none;stroke:#000000;stroke-width:1;stroke-linecap:butt;stroke-linejoin:miter;stroke-miterlimit:10;stroke-dasharray:none;stroke-opacity:1"
         transform="matrix(0.85836774,0,0,0.85836774,-23.213285,-12.47634)"
         clip-path="url(#clipPath10)" /><path
         id="path11"
         d="m 80,130 c 0,0 23.33333,0 70,0"
         style="fill:none;stroke:#000000;stroke-width:1;stroke-linecap:butt;stroke-linejoin:miter;stroke-miterlimit:10;stroke-dasharray:none;stroke-opacity:1"
         transform="matrix(0.85836774,0,0,0.85836774,-23.213285,-12.47634)"
         clip-path="url(#clipPath12)" /><path
         id="path13"
         d="m 80,130 c 23.33334,0 35,6.66667 35,20 0,13.33333 11.66666,20 35,20"
         style="fill:none;stroke:#000000;stroke-width:1;stroke-linecap:butt;stroke-linejoin:miter;stroke-miterlimit:10;stroke-dasharray:none;stroke-opacity:1"
         transform="matrix(0.85836774,0,0,0.85836774,-23.213285,-12.47634)"
         clip-path="url(#clipPath14)" /><path
         id="path15"
         d="m 80,130 c 23.33334,0 35,13.33333 35,40 0,26.66667 11.66666,40 35,40"
         style="fill:none;stroke:#000000;stroke-width:1;stroke-linecap:butt;stroke-linejoin:miter;stroke-miterlimit:10;stroke-dasharray:none;stroke-opacity:1"
         transform="matrix(0.85836774,0,0,0.85836774,-23.213285,-12.47634)"
         clip-path="url(#clipPath16)" /><path
         id="path17"
         d="m 80,130 c -8e-6,0.6566 -0.06406,1.3069 -0.192154,1.9509 -0.128105,0.64398 -0.317787,1.26928 -0.569061,1.87591 -0.251274,0.60663 -0.559311,1.18292 -0.924103,1.72887 -0.364792,0.54596 -0.779335,1.05109 -1.243622,1.51538 -0.464294,0.46428 -0.969414,0.87883 -1.515365,1.24362 -0.545952,0.36479 -1.122239,0.67282 -1.728867,0.9241 -0.606628,0.25127 -1.231941,0.44097 -1.875931,0.56907 C 71.306908,139.93594 70.656609,140 70,140 c -0.656616,0 -1.306923,-0.0641 -1.950912,-0.19215 -0.64399,-0.1281 -1.269303,-0.3178 -1.875931,-0.56907 -0.606629,-0.25128 -1.182915,-0.55931 -1.728867,-0.9241 -0.545952,-0.36479 -1.051071,-0.77934 -1.515362,-1.24362 -0.464294,-0.46429 -0.878837,-0.96942 -1.243629,-1.51538 -0.364796,-0.54595 -0.672829,-1.12224 -0.924103,-1.72887 -0.251274,-0.60663 -0.44096,-1.23193 -0.569057,-1.87591 C 60.064041,131.3069 59.999996,130.6566 60,130 c -4e-6,-0.65662 0.06404,-1.30692 0.192139,-1.95091 0.128097,-0.64399 0.317783,-1.26931 0.569057,-1.87594 0.251274,-0.60664 0.559307,-1.18292 0.924099,-1.72887 0.364796,-0.54595 0.779339,-1.05107 1.243633,-1.51535 0.464291,-0.4643 0.96941,-0.87884 1.515362,-1.24364 0.545952,-0.36479 1.122238,-0.67282 1.728867,-0.92409 0.606628,-0.25127 1.231941,-0.44096 1.875931,-0.56906 C 68.693077,120.06405 69.343384,120 70,120 c 0.656609,0 1.306908,0.064 1.950897,0.19215 0.64399,0.12809 1.269303,0.31777 1.875931,0.56904 0.606628,0.25128 1.182915,0.55931 1.728867,0.9241 0.545951,0.3648 1.051071,0.77934 1.515365,1.24364 0.464287,0.46428 0.87883,0.9694 1.243622,1.51535 0.364792,0.54595 0.672829,1.12224 0.924103,1.72888 0.251274,0.60662 0.440956,1.23194 0.569061,1.87593 C 79.935944,128.69308 79.999992,129.34338 80,130 Z"
         style="fill:#ffffff;fill-opacity:1;fill-rule:nonzero;stroke:#000000;stroke-width:1;stroke-linecap:butt;stroke-linejoin:miter;stroke-miterlimit:10;stroke-dasharray:none;stroke-opacity:1"
         transform="matrix(0.85836774,0,0,0.85836774,-23.64247,-12.905524)"
         clip-path="url(#clipPath18)" /><path
         id="path19"
         d="m 290,50 c 23.33334,0 35,13.333332 35,40 0,26.66667 11.66666,40 35,40"
         style="fill:none;stroke:#000000;stroke-width:1;stroke-linecap:butt;stroke-linejoin:miter;stroke-miterlimit:10;stroke-dasharray:none;stroke-opacity:1"
         transform="matrix(0.85836774,0,0,0.85836774,-23.213285,-12.47634)"
         clip-path="url(#clipPath20)" /><path
         id="path21"
         d="m 153,40 h 134 c 0.3978,0 0.78049,0.07612 1.14801,0.228355 0.36752,0.152241 0.69196,0.369015 0.9733,0.650322 0.28128,0.2813 0.49804,0.605725 0.6503,0.973271 C 289.92386,42.219486 289.99997,42.602169 290,43 v 14 c -3e-5,0.39782 -0.0761,0.780502 -0.22839,1.148045 -0.15226,0.367542 -0.36902,0.691963 -0.6503,0.97327 -0.28134,0.2813 -0.60578,0.498074 -0.9733,0.650314 C 287.78049,59.92387 287.3978,59.999996 287,60 H 153 c -0.39784,-4e-6 -0.78053,-0.07613 -1.14807,-0.228371 -0.36754,-0.15224 -0.69197,-0.369014 -0.97327,-0.650314 -0.28131,-0.281307 -0.49809,-0.605728 -0.65033,-0.97327 C 150.0761,57.780502 149.99998,57.39782 150,57 V 43 c -2e-5,-0.397831 0.0761,-0.780514 0.22833,-1.148052 0.15224,-0.367546 0.36902,-0.691971 0.65033,-0.973271 0.2813,-0.281307 0.60573,-0.498081 0.97327,-0.650322 C 152.21947,40.076118 152.60216,40 153,40 Z"
         style="fill:#d0cee2;fill-opacity:1;fill-rule:nonzero;stroke:none"
         transform="matrix(0.85836774,0,0,0.85836774,-23.213285,-12.47634)"
         clip-path="url(#clipPath22)" /><path
         id="path23"
         d="m 290,90 c 23.33334,0 35,6.666664 35,20 0,13.33334 11.66666,20 35,20"
         style="fill:none;stroke:#000000;stroke-width:1;stroke-linecap:butt;stroke-linejoin:miter;stroke-miterlimit:10;stroke-dasharray:none;stroke-opacity:1"
         transform="matrix(0.85836774,0,0,0.85836774,-23.213285,-12.47634)"
         clip-path="url(#clipPath24)" /><path
         id="path25"
         d="m 153,80 h 134 c 0.3978,0 0.78049,0.07612 1.14801,0.228355 0.36752,0.152237 0.69196,0.369011 0.9733,0.650322 0.28128,0.281304 0.49804,0.605721 0.6503,0.973267 C 289.92386,82.21949 289.99997,82.602173 290,83 v 14 c -3e-5,0.39782 -0.0761,0.780502 -0.22839,1.148041 -0.15226,0.367546 -0.36902,0.691971 -0.6503,0.973274 -0.28134,0.281303 -0.60578,0.49807 -0.9733,0.650314 C 287.78049,99.923866 287.3978,99.999992 287,100 H 153 c -0.39784,-8e-6 -0.78053,-0.07613 -1.14807,-0.228378 -0.36754,-0.152237 -0.69197,-0.369004 -0.97327,-0.650307 -0.28131,-0.281303 -0.49809,-0.605728 -0.65033,-0.973274 C 150.0761,97.780502 149.99998,97.39782 150,97 V 83 c -2e-5,-0.397827 0.0761,-0.78051 0.22833,-1.148056 0.15224,-0.367546 0.36902,-0.691963 0.65033,-0.973267 0.2813,-0.281311 0.60573,-0.498085 0.97327,-0.650322 C 152.21947,80.076118 152.60216,80 153,80 Z"
         style="fill:#bac8d3;fill-opacity:1;fill-rule:nonzero;stroke:none"
         transform="matrix(0.85836774,0,0,0.85836774,-23.213285,-12.47634)"
         clip-path="url(#clipPath26)" /><path
         id="path27"
         d="m 290,130 c 0,0 23.33334,0 70,0"
         style="fill:none;stroke:#000000;stroke-width:1;stroke-linecap:butt;stroke-linejoin:miter;stroke-miterlimit:10;stroke-dasharray:none;stroke-opacity:1"
         transform="matrix(0.85836774,0,0,0.85836774,-23.213285,-12.47634)"
         clip-path="url(#clipPath28)" /><path
         id="path29"
         d="m 153,120 h 134 c 0.3978,0 0.78049,0.0761 1.14801,0.22835 0.36752,0.15224 0.69196,0.36902 0.9733,0.65032 0.28128,0.2813 0.49804,0.60572 0.6503,0.97327 0.15225,0.36754 0.22836,0.75023 0.22839,1.14806 v 14 c -3e-5,0.39781 -0.0761,0.7805 -0.22839,1.14804 -0.15226,0.36754 -0.36902,0.69196 -0.6503,0.97327 -0.28134,0.28129 -0.60578,0.49806 -0.9733,0.65031 C 287.78049,139.92386 287.3978,139.99998 287,140 H 153 c -0.39784,-2e-5 -0.78053,-0.0761 -1.14807,-0.22838 -0.36754,-0.15225 -0.69197,-0.36902 -0.97327,-0.65031 -0.28131,-0.28131 -0.49809,-0.60573 -0.65033,-0.97327 C 150.0761,137.7805 149.99998,137.39781 150,137 v -14 c -2e-5,-0.39783 0.0761,-0.78052 0.22833,-1.14806 0.15224,-0.36755 0.36902,-0.69197 0.65033,-0.97327 0.2813,-0.2813 0.60573,-0.49808 0.97327,-0.65032 C 152.21947,120.07612 152.60216,120 153,120 Z"
         style="fill:#b1ddf0;fill-opacity:1;fill-rule:nonzero;stroke:none"
         transform="matrix(0.85836774,0,0,0.85836774,-23.213285,-12.47634)"
         clip-path="url(#clipPath30)" /><path
         id="path31"
         d="m 290,170 c 23.33334,0 35,-6.66667 35,-20 0,-13.33333 11.66666,-20 35,-20"
         style="fill:none;stroke:#000000;stroke-width:1;stroke-linecap:butt;stroke-linejoin:miter;stroke-miterlimit:10;stroke-dasharray:none;stroke-opacity:1"
         transform="matrix(0.85836774,0,0,0.85836774,-23.213285,-12.47634)"
         clip-path="url(#clipPath32)" /><path
         id="path33"
         d="m 153,160 h 134 c 0.3978,0 0.78049,0.0761 1.14801,0.22835 0.36752,0.15223 0.69196,0.36902 0.9733,0.65033 0.28128,0.28129 0.49804,0.60573 0.6503,0.97326 0.15225,0.36754 0.22836,0.75023 0.22839,1.14806 v 14 c -3e-5,0.39781 -0.0761,0.7805 -0.22839,1.14804 -0.15226,0.36755 -0.36902,0.69199 -0.6503,0.97328 -0.28134,0.2813 -0.60578,0.49806 -0.9733,0.6503 C 287.78049,179.92387 287.3978,180 287,180 H 153 c -0.39784,0 -0.78053,-0.0761 -1.14807,-0.22836 -0.36754,-0.15224 -0.69197,-0.36902 -0.97327,-0.65032 -0.28131,-0.28129 -0.49809,-0.60573 -0.65033,-0.97328 C 150.0761,177.7805 149.99998,177.39781 150,177 v -14 c -2e-5,-0.39783 0.0761,-0.78052 0.22833,-1.14806 0.15224,-0.36753 0.36902,-0.69197 0.65033,-0.97326 0.2813,-0.28131 0.60573,-0.4981 0.97327,-0.65033 C 152.21947,160.07611 152.60216,160 153,160 Z"
         style="fill:#b0e3e6;fill-opacity:1;fill-rule:nonzero;stroke:none"
         transform="matrix(0.85836774,0,0,0.85836774,-23.213285,-12.47634)"
         clip-path="url(#clipPath34)" /><path
         id="path35"
         d="m 290,210 c 23.33334,0 35,-13.33333 35,-40 0,-26.66667 11.66666,-40 35,-40"
         style="fill:none;stroke:#000000;stroke-width:1;stroke-linecap:butt;stroke-linejoin:miter;stroke-miterlimit:10;stroke-dasharray:none;stroke-opacity:1"
         transform="matrix(0.85836774,0,0,0.85836774,-23.213285,-12.47634)"
         clip-path="url(#clipPath36)" /><path
         id="path37"
         d="m 153,200 h 134 c 0.3978,0 0.78049,0.0761 1.14801,0.22835 0.36752,0.15223 0.69196,0.369 0.9733,0.65031 0.28128,0.2813 0.49804,0.60572 0.6503,0.97325 0.15225,0.36754 0.22836,0.75025 0.22839,1.14809 v 14 c -3e-5,0.39781 -0.0761,0.78047 -0.22839,1.14801 -0.15226,0.36754 -0.36902,0.69197 -0.6503,0.97328 -0.28134,0.2813 -0.60578,0.49808 -0.9733,0.65033 C 287.78049,219.92386 287.3978,219.99998 287,220 H 153 c -0.39784,-2e-5 -0.78053,-0.0762 -1.14807,-0.22839 -0.36754,-0.15224 -0.69197,-0.36902 -0.97327,-0.65032 -0.28131,-0.28131 -0.49809,-0.60573 -0.65033,-0.97326 C 150.0761,217.78049 149.99998,217.39781 150,217 v -14 c -2e-5,-0.39784 0.0761,-0.78055 0.22833,-1.14809 0.15224,-0.36753 0.36902,-0.69195 0.65033,-0.97325 0.2813,-0.28131 0.60573,-0.49808 0.97327,-0.65031 C 152.21947,200.07611 152.60216,200 153,200 Z"
         style="fill:#fad9d5;fill-opacity:1;fill-rule:nonzero;stroke:none"
         transform="matrix(0.85836774,0,0,0.85836774,-23.213285,-12.47634)"
         clip-path="url(#clipPath38)" /><path
         id="path39"
         d="m 380,130 c 16.66666,0 25,-13.33333 25,-40 0,-26.666668 8.33334,-40 25,-40"
         style="fill:none;stroke:#000000;stroke-width:1;stroke-linecap:butt;stroke-linejoin:miter;stroke-miterlimit:10;stroke-dasharray:none;stroke-opacity:1"
         transform="matrix(0.85836774,0,0,0.85836774,-23.213285,-12.47634)"
         clip-path="url(#clipPath40)" /><path
         id="path41"
         d="m 380,130 c 16.66666,0 25,-6.66666 25,-20 0,-13.333336 8.33334,-20 25,-20"
         style="fill:none;stroke:#000000;stroke-width:1;stroke-linecap:butt;stroke-linejoin:miter;stroke-miterlimit:10;stroke-dasharray:none;stroke-opacity:1"
         transform="matrix(0.85836774,0,0,0.85836774,-23.213285,-12.47634)"
         clip-path="url(#clipPath42)" /><path
         id="path43"
         d="m 380,130 c 0,0 16.66666,0 50,0"
         style="fill:none;stroke:#000000;stroke-width:1;stroke-linecap:butt;stroke-linejoin:miter;stroke-miterlimit:10;stroke-dasharray:none;stroke-opacity:1"
         transform="matrix(0.85836774,0,0,0.85836774,-23.213285,-12.47634)"
         clip-path="url(#clipPath44)" /><path
         id="path45"
         d="m 380,130 c 16.66666,0 25,6.66667 25,20 0,13.33333 8.33334,20 25,20"
         style="fill:none;stroke:#000000;stroke-width:1;stroke-linecap:butt;stroke-linejoin:miter;stroke-miterlimit:10;stroke-dasharray:none;stroke-opacity:1"
         transform="matrix(0.85836774,0,0,0.85836774,-23.213285,-12.47634)"
         clip-path="url(#clipPath46)" /><path
         id="path47"
         d="m 380,130 c 16.66666,0 25,13.33333 25,40 0,26.66667 8.33334,40 25,40"
         style="fill:none;stroke:#000000;stroke-width:1;stroke-linecap:butt;stroke-linejoin:miter;stroke-miterlimit:10;stroke-dasharray:none;stroke-opacity:1"
         transform="matrix(0.85836774,0,0,0.85836774,-23.213285,-12.47634)"
         clip-path="url(#clipPath48)" /><path
         id="path49"
         d="m 380,130 c -3e-5,0.6566 -0.0641,1.3069 -0.19217,1.9509 -0.12811,0.64398 -0.31781,1.26928 -0.56906,1.87591 -0.25128,0.60663 -0.55933,1.18292 -0.92413,1.72887 -0.36478,0.54596 -0.77933,1.05109 -1.2436,1.51538 -0.46429,0.46428 -0.96942,0.87883 -1.51538,1.24362 -0.54596,0.36479 -1.12225,0.67282 -1.72888,0.9241 -0.60663,0.25127 -1.23193,0.44097 -1.87591,0.56907 C 371.30688,139.93594 370.65659,140 370,140 c -0.65665,0 -1.30695,-0.0641 -1.95096,-0.19215 -0.64398,-0.1281 -1.26929,-0.3178 -1.87591,-0.56907 -0.60663,-0.25128 -1.18293,-0.55931 -1.72886,-0.9241 -0.54592,-0.36479 -1.05105,-0.77934 -1.51535,-1.24362 -0.46429,-0.46429 -0.87884,-0.96942 -1.24365,-1.51538 -0.36477,-0.54595 -0.67282,-1.12224 -0.9241,-1.72887 -0.25125,-0.60663 -0.44095,-1.23193 -0.56906,-1.87591 C 360.06403,131.3069 360,130.6566 360,130 c 0,-0.65662 0.0641,-1.30692 0.19214,-1.95091 0.12808,-0.64399 0.31778,-1.26931 0.56906,-1.87594 0.25125,-0.60664 0.5593,-1.18292 0.92407,-1.72887 0.36481,-0.54595 0.77936,-1.05107 1.24365,-1.51535 0.4643,-0.4643 0.96943,-0.87884 1.51535,-1.24364 0.54593,-0.36479 1.12223,-0.67282 1.72886,-0.92409 0.60662,-0.25127 1.23193,-0.44096 1.87594,-0.56906 C 368.69305,120.06405 369.34335,120 370,120 c 0.65659,0 1.30688,0.064 1.95087,0.19215 0.64398,0.12809 1.26928,0.31777 1.87591,0.56904 0.60663,0.25128 1.18292,0.55931 1.72888,0.9241 0.54596,0.3648 1.05109,0.77934 1.51538,1.24364 0.46427,0.46428 0.87882,0.9694 1.2436,1.51535 0.3648,0.54595 0.67285,1.12224 0.92413,1.72888 0.25125,0.60662 0.44095,1.23194 0.56906,1.87593 0.12808,0.64399 0.19214,1.29429 0.19217,1.95091 z"
         style="fill:#ffffff;fill-opacity:1;fill-rule:nonzero;stroke:#000000;stroke-width:1;stroke-linecap:butt;stroke-linejoin:miter;stroke-miterlimit:10;stroke-dasharray:none;stroke-opacity:1"
         transform="matrix(0.85836774,0,0,0.85836774,-23.64247,-12.905524)"
         clip-path="url(#clipPath50)" /><path
         id="path51"
         d="M 299,46.040001 C 299,42.700001 303.48001,40 309,40 c 2.64999,0 5.20001,0.639999 7.07001,1.77 1.88,1.130002 2.92999,2.669999 2.92999,4.270001 v 7.919998 C 319,57.299999 314.51999,60 309,60 c -5.51999,0 -10,-2.700001 -10,-6.040001 z"
         style="fill:#e1d5e7;fill-opacity:1;fill-rule:nonzero;stroke:#9673a6;stroke-width:1;stroke-linecap:butt;stroke-linejoin:miter;stroke-miterlimit:10;stroke-dasharray:none;stroke-opacity:1"
         transform="matrix(0.85836774,0,0,0.85836774,-23.213285,-12.47634)"
         clip-path="url(#clipPath52)" /><path
         id="path53"
         d="m 319,46.040001 c 0,3.329998 -4.48001,6.040001 -10,6.040001 -5.51999,0 -10,-2.710003 -10,-6.040001"
         style="fill:none;stroke:#9673a6;stroke-width:1;stroke-linecap:butt;stroke-linejoin:miter;stroke-miterlimit:10;stroke-dasharray:none;stroke-opacity:1"
         transform="matrix(0.85836774,0,0,0.85836774,-23.213285,-12.47634)"
         clip-path="url(#clipPath54)" /><path
         id="path55"
         d="M 299,86.040001 C 299,82.699997 303.48001,80 309,80 c 2.64999,0 5.20001,0.639999 7.07001,1.769997 1.88,1.130005 2.92999,2.670005 2.92999,4.270004 v 7.919998 C 319,97.300003 314.51999,100 309,100 c -5.51999,0 -10,-2.699997 -10,-6.040001 z"
         style="fill:#bac8d3;fill-opacity:1;fill-rule:nonzero;stroke:#23445d;stroke-width:1;stroke-linecap:butt;stroke-linejoin:miter;stroke-miterlimit:10;stroke-dasharray:none;stroke-opacity:1"
         transform="matrix(0.85836774,0,0,0.85836774,-23.213285,-12.47634)"
         clip-path="url(#clipPath56)" /><path
         id="path57"
         d="m 319,86.040001 c 0,3.330002 -4.48001,6.040001 -10,6.040001 -5.51999,0 -10,-2.709999 -10,-6.040001"
         style="fill:none;stroke:#23445d;stroke-width:1;stroke-linecap:butt;stroke-linejoin:miter;stroke-miterlimit:10;stroke-dasharray:none;stroke-opacity:1"
         transform="matrix(0.85836774,0,0,0.85836774,-23.213285,-12.47634)"
         clip-path="url(#clipPath58)" /><path
         id="path59"
         d="m 299,124.04 c 0,-3.34 4.48001,-6.04 10,-6.04 2.64999,0 5.20001,0.64 7.07001,1.77 1.88,1.13 2.92999,2.67 2.92999,4.27 v 7.92001 C 319,135.3 314.51999,138 309,138 c -5.51999,0 -10,-2.7 -10,-6.03999 z"
         style="fill:#b1ddf0;fill-opacity:1;fill-rule:nonzero;stroke:#10739e;stroke-width:1;stroke-linecap:butt;stroke-linejoin:miter;stroke-miterlimit:10;stroke-dasharray:none;stroke-opacity:1"
         transform="matrix(0.85836774,0,0,0.85836774,-23.213285,-12.47634)"
         clip-path="url(#clipPath60)" /><path
         id="path61"
         d="m 319,124.04 c 0,3.33 -4.48001,6.04 -10,6.04 -5.51999,0 -10,-2.71 -10,-6.04"
         style="fill:none;stroke:#10739e;stroke-width:1;stroke-linecap:butt;stroke-linejoin:miter;stroke-miterlimit:10;stroke-dasharray:none;stroke-opacity:1"
         transform="matrix(0.85836774,0,0,0.85836774,-23.213285,-12.47634)"
         clip-path="url(#clipPath62)" /><path
         id="path63"
         d="M 299,165.03999 C 299,161.7 303.48001,159 309,159 c 2.64999,0 5.20001,0.64 7.07001,1.77 1.88,1.12999 2.92999,2.67 2.92999,4.26999 v 7.92002 C 319,176.3 314.51999,179 309,179 c -5.51999,0 -10,-2.7 -10,-6.03999 z"
         style="fill:#b0e3e6;fill-opacity:1;fill-rule:nonzero;stroke:#0e8088;stroke-width:1;stroke-linecap:butt;stroke-linejoin:miter;stroke-miterlimit:10;stroke-dasharray:none;stroke-opacity:1"
         transform="matrix(0.85836774,0,0,0.85836774,-23.213285,-12.47634)"
         clip-path="url(#clipPath64)" /><path
         id="path65"
         d="m 319,165.03999 c 0,3.33001 -4.48001,6.04001 -10,6.04001 -5.51999,0 -10,-2.71 -10,-6.04001"
         style="fill:none;stroke:#0e8088;stroke-width:1;stroke-linecap:butt;stroke-linejoin:miter;stroke-miterlimit:10;stroke-dasharray:none;stroke-opacity:1"
         transform="matrix(0.85836774,0,0,0.85836774,-23.213285,-12.47634)"
         clip-path="url(#clipPath66)" /><path
         id="path67"
         d="M 299,206.03999 C 299,202.7 303.48001,200 309,200 c 2.64999,0 5.20001,0.64 7.07001,1.77 1.88,1.12999 2.92999,2.67 2.92999,4.26999 v 7.92002 C 319,217.3 314.51999,220 309,220 c -5.51999,0 -10,-2.7 -10,-6.03999 z"
         style="fill:#fad9d5;fill-opacity:1;fill-rule:nonzero;stroke:#ae4132;stroke-width:1;stroke-linecap:butt;stroke-linejoin:miter;stroke-miterlimit:10;stroke-dasharray:none;stroke-opacity:1"
         transform="matrix(0.85836774,0,0,0.85836774,-23.213285,-12.47634)"
         clip-path="url(#clipPath68)" /><path
         id="path69"
         d="m 319,206.03999 c 0,3.33001 -4.48001,6.04001 -10,6.04001 -5.51999,0 -10,-2.71 -10,-6.04001"
         style="fill:none;stroke:#ae4132;stroke-width:1;stroke-linecap:butt;stroke-linejoin:miter;stroke-miterlimit:10;stroke-dasharray:none;stroke-opacity:1"
         transform="matrix(0.85836774,0,0,0.85836774,-23.213285,-12.47634)"
         clip-path="url(#clipPath70)" /><path
         id="path71"
         d="m 99,69 h 31 V 90 H 99 Z"
         style="fill:#ffffff;fill-opacity:1;fill-rule:nonzero;stroke:#000000;stroke-width:1;stroke-linecap:butt;stroke-linejoin:miter;stroke-miterlimit:10;stroke-dasharray:none;stroke-opacity:1"
         transform="matrix(0.85836774,0,0,0.85836774,-23.213285,-12.47634)"
         clip-path="url(#clipPath72)" /><path
         id="path73"
         d="M 104,69 V 90 M 125,69 V 90"
         style="fill:none;stroke:#000000;stroke-width:1;stroke-linecap:butt;stroke-linejoin:miter;stroke-miterlimit:10;stroke-dasharray:none;stroke-opacity:1"
         transform="matrix(0.85836774,0,0,0.85836774,-23.213285,-12.47634)"
         clip-path="url(#clipPath74)" /><path
         id="path75"
         d="M 132,-11 C 109.33333,-11 98,0 98,22 v 11 l 13,28 c 50,105.33334 86.33333,196.33331 109,273 l 8,24 h -32 c -25.33333,0 -43.33333,-1 -54,-3 -10.66667,-2 -23.66666,-8.33334 -39,-19 -7.333336,-4.66666 -14.666664,-10.66666 -22,-18 -7.333336,-7.33334 -13.666664,-14.33334 -19,-21 -5.333332,-6.66666 -8.333332,-10.66666 -9,-12 -1.333332,-0.66666 -6.333332,-1 -15,-1 -12.666668,0 -19,3.33334 -19,10 0,4 6.333332,15.66666 19,35 12.666668,19.33334 31,40 55,62 24,22 47.66667,34.66666 71,38 4.66667,1.33334 79.66666,2 225,2 106.66669,0 161.33331,-0.33334 164,-1 13.33331,-4.66666 20,-14 20,-28 0,-20.66666 -10.66669,-34.66666 -32,-42 -4,-1.33334 -27,-2 -69,-2 h -64 l -3,-17 c -8,-48 -12,-87.66667 -12,-119 0,-34.66667 3,-65.66667 9,-93 6,-27.33334 12.33334,-48.666664 19,-64 6.66666,-15.333336 10,-24.666668 10,-28 0,-11.333334 -4.66666,-22 -14,-32 -9.33334,-10 -21.33334,-15 -36,-15 -7.33334,0 -13.33334,1 -18,3 -4.66666,2 -10,10 -16,24 -6,14 -11.33334,34 -16,60 -0.66666,6 -1,20.666664 -1,44 0,32.66667 3,67.66666 9,105 6,37.33334 12,68 18,92 6,24 9.33334,37.33334 10,40 h -98 l -1,-4 c 0,-2 -6.33334,-28.33334 -19,-79 C 236.33333,224.33333 222,170.66667 206,114 190,57.333332 179.66667,25 175,17 167.66667,-1.6666679 153.33333,-11 132,-11 Z"
         style="fill:#000000;fill-opacity:1;fill-rule:nonzero;stroke:#000000;stroke-width:1;stroke-linecap:butt;stroke-linejoin:miter;stroke-miterlimit:10;stroke-dasharray:none;stroke-opacity:0.0226"
         transform="matrix(0.01006273,0,0,-0.01006273,69.919616,59.47427)"
         clip-path="url(#clipPath76)" /><path
         id="path77"
         d="m 184,600 c 0,16 6.33333,30 19,42 12.66667,12 27.33333,18.33331 44,19 12,0 22,-4 30,-12 8,-8 12.33334,-18 13,-30 0,-15.33331 -6.66666,-29.33331 -20,-42 -13.33334,-12.66669 -28,-19.33331 -44,-20 -10,0 -19.33333,3.33331 -28,10 -8.66667,6.66669 -13.33333,17.66669 -14,33 z M 21,287 c 0,5.33334 3,15.66666 9,31 6,15.33334 14,32.33334 24,51 10,18.66666 24.666664,35.66666 44,51 19.33334,15.33334 39.33333,22.66666 60,22 26,0 47.66667,-7.66666 65,-23 17.33333,-15.33334 26.33333,-36 27,-62 0,-11.33334 -4.66667,-30 -14,-56 -9.33333,-26 -22.66667,-61 -40,-105 -17.33333,-44 -31.33333,-81.66666 -42,-113 -3.33333,-14.666664 -5,-25.333332 -5,-32 0,-16.666668 5.66667,-25 17,-25 6,0 12.33333,1 19,3 6.66667,2 14.33333,6.666668 23,14 8.66667,7.333332 17.66667,19 27,35 9.33333,16 17.66667,35.66666 25,59 2,8 3.66666,12.66667 5,14 1.33334,1.33333 7,2 17,2 13.33334,0 20,-3.33333 20,-10 0,-5.33333 -3,-15.66666 -9,-31 C 287,96.666664 278.66666,79.666672 268,61 257.33334,42.333332 242.33333,25.666668 223,11 203.66667,-3.666667 183,-11 161,-11 c -21.33333,0 -41,7 -59,21 -18,14 -27.333336,35.333332 -28,64 0,11.333336 1.666664,22 5,32 3.333336,10 17.666664,48 43,114 25.33333,67.33334 40,107.66666 44,121 4,13.33334 6.33333,26.33334 7,39 0,16 -5.66667,24 -17,24 h -2 c -20,0 -38.33333,-11 -55,-33 -16.666672,-22 -29.333336,-50 -38,-84 -0.666668,-0.66666 -1.333332,-1.66666 -2,-3 -0.666668,-1.33334 -1,-2.33334 -1,-3 0,-0.66666 -0.666668,-1.33334 -2,-2 -1.333332,-0.66666 -2.333332,-1 -3,-1 -0.666668,0 -2,0 -4,0 -2,0 -4.666668,0 -8,0 H 27 c -4,4 -6,7 -6,9 z"
         style="fill:#000000;fill-opacity:1;fill-rule:nonzero;stroke:#000000;stroke-width:1;stroke-linecap:butt;stroke-linejoin:miter;stroke-miterlimit:10;stroke-dasharray:none;stroke-opacity:0.016"
         transform="matrix(0.00711435,0,0,-0.00711435,75.987443,55.318362)"
         clip-path="url(#clipPath78)" /><path
         id="path79"
         d="m 390,69 h 39 v 21 h -39 z"
         style="fill:#ffffff;fill-opacity:1;fill-rule:nonzero;stroke:#000000;stroke-width:1;stroke-linecap:butt;stroke-linejoin:miter;stroke-miterlimit:10;stroke-dasharray:none;stroke-opacity:1"
         transform="matrix(0.85836774,0,0,0.85836774,-23.213285,-12.47634)"
         clip-path="url(#clipPath80)" /><path
         id="path81"
         d="M 396,69 V 90 M 423,69 V 90"
         style="fill:none;stroke:#000000;stroke-width:1;stroke-linecap:butt;stroke-linejoin:miter;stroke-miterlimit:10;stroke-dasharray:none;stroke-opacity:1"
         transform="matrix(0.85836774,0,0,0.85836774,-23.213285,-12.47634)"
         clip-path="url(#clipPath82)" /><path
         id="path83"
         d="M 132,-11 C 109.33333,-11 98,0 98,22 v 11 l 13,28 c 50,105.33334 86.33333,196.33331 109,273 l 8,24 h -32 c -25.33333,0 -43.33333,-1 -54,-3 -10.66667,-2 -23.66666,-8.33334 -39,-19 -7.333336,-4.66666 -14.666664,-10.66666 -22,-18 -7.333336,-7.33334 -13.666664,-14.33334 -19,-21 -5.333332,-6.66666 -8.333332,-10.66666 -9,-12 -1.333332,-0.66666 -6.333332,-1 -15,-1 -12.666668,0 -19,3.33334 -19,10 0,4 6.333332,15.66666 19,35 12.666668,19.33334 31,40 55,62 24,22 47.66667,34.66666 71,38 4.66667,1.33334 79.66666,2 225,2 106.66669,0 161.33331,-0.33334 164,-1 13.33331,-4.66666 20,-14 20,-28 0,-20.66666 -10.66669,-34.66666 -32,-42 -4,-1.33334 -27,-2 -69,-2 h -64 l -3,-17 c -8,-48 -12,-87.66667 -12,-119 0,-34.66667 3,-65.66667 9,-93 6,-27.33334 12.33334,-48.666664 19,-64 6.66666,-15.333336 10,-24.666668 10,-28 0,-11.333334 -4.66666,-22 -14,-32 -9.33334,-10 -21.33334,-15 -36,-15 -7.33334,0 -13.33334,1 -18,3 -4.66666,2 -10,10 -16,24 -6,14 -11.33334,34 -16,60 -0.66666,6 -1,20.666664 -1,44 0,32.66667 3,67.66666 9,105 6,37.33334 12,68 18,92 6,24 9.33334,37.33334 10,40 h -98 l -1,-4 c 0,-2 -6.33334,-28.33334 -19,-79 C 236.33333,224.33333 222,170.66667 206,114 190,57.333332 179.66667,25 175,17 167.66667,-1.6666679 153.33333,-11 132,-11 Z"
         style="fill:#000000;fill-opacity:1;fill-rule:nonzero;stroke:#000000;stroke-width:1;stroke-linecap:butt;stroke-linejoin:miter;stroke-miterlimit:10;stroke-dasharray:none;stroke-opacity:0.0227"
         transform="matrix(0.01007054,0,0,-0.01007054,318.84627,59.515409)"
         clip-path="url(#clipPath84)" /><path
         id="path85"
         d="m 184,600 c 0,16 6.33333,30 19,42 12.66667,12 27.33333,18.33331 44,19 12,0 22,-4 30,-12 8,-8 12.33334,-18 13,-30 0,-15.33331 -6.66666,-29.33331 -20,-42 -13.33334,-12.66669 -28,-19.33331 -44,-20 -10,0 -19.33333,3.33331 -28,10 -8.66667,6.66669 -13.33333,17.66669 -14,33 z M 21,287 c 0,5.33334 3,15.66666 9,31 6,15.33334 14,32.33334 24,51 10,18.66666 24.666664,35.66666 44,51 19.33334,15.33334 39.33333,22.66666 60,22 26,0 47.66667,-7.66666 65,-23 17.33333,-15.33334 26.33333,-36 27,-62 0,-11.33334 -4.66667,-30 -14,-56 -9.33333,-26 -22.66667,-61 -40,-105 -17.33333,-44 -31.33333,-81.66666 -42,-113 -3.33333,-14.666664 -5,-25.333332 -5,-32 0,-16.666668 5.66667,-25 17,-25 6,0 12.33333,1 19,3 6.66667,2 14.33333,6.666668 23,14 8.66667,7.333332 17.66667,19 27,35 9.33333,16 17.66667,35.66666 25,59 2,8 3.66666,12.66667 5,14 1.33334,1.33333 7,2 17,2 13.33334,0 20,-3.33333 20,-10 0,-5.33333 -3,-15.66666 -9,-31 C 287,96.666664 278.66666,79.666672 268,61 257.33334,42.333332 242.33333,25.666668 223,11 203.66667,-3.666667 183,-11 161,-11 c -21.33333,0 -41,7 -59,21 -18,14 -27.333336,35.333332 -28,64 0,11.333336 1.666664,22 5,32 3.333336,10 17.666664,48 43,114 25.33333,67.33334 40,107.66666 44,121 4,13.33334 6.33333,26.33334 7,39 0,16 -5.66667,24 -17,24 h -2 c -20,0 -38.33333,-11 -55,-33 -16.666672,-22 -29.333336,-50 -38,-84 -0.666668,-0.66666 -1.333332,-1.66666 -2,-3 -0.666668,-1.33334 -1,-2.33334 -1,-3 0,-0.66666 -0.666668,-1.33334 -2,-2 -1.333332,-0.66666 -2.333332,-1 -3,-1 -0.666668,0 -2,0 -4,0 -2,0 -4.666668,0 -8,0 H 27 c -4,4 -6,7 -6,9 z"
         style="fill:#000000;fill-opacity:1;fill-rule:nonzero;stroke:#000000;stroke-width:1;stroke-linecap:butt;stroke-linejoin:miter;stroke-miterlimit:10;stroke-dasharray:none;stroke-opacity:0.016"
         transform="matrix(0.00711987,0,0,-0.00711987,324.91878,55.356273)"
         clip-path="url(#clipPath86)" /><path
         id="path87"
         d="m 56,237 c 0,0 0,4.33333 0,13 0,8.66666 4.666664,15.33334 14,20 h 299 v 150 l 1,150 c 6.66666,8.66669 13,13 19,13 8.66666,0 15.33334,-5 20,-15 V 270 h 298 c 10,-5.33334 15,-12 15,-20 0,-8 -5,-14.66667 -15,-20 H 409 V -68 c -5.33334,-9.333336 -11.33334,-14 -18,-14 h -2 -2 c -8,0 -14,4.666664 -18,14 V 230 H 70 c -9.333336,4.66667 -14,11.33333 -14,20 z"
         style="fill:#000000;fill-opacity:1;fill-rule:nonzero;stroke:#000000;stroke-width:1;stroke-linecap:butt;stroke-linejoin:miter;stroke-miterlimit:10;stroke-dasharray:none;stroke-opacity:0.016"
         transform="matrix(0.00711987,0,0,-0.00711987,327.37514,55.356273)"
         clip-path="url(#clipPath88)" /><path
         id="path89"
         d="m 213,578 -13,-5 c -9.33333,-3.33331 -22.66667,-6.66669 -40,-10 -17.33333,-3.33331 -36.66666,-5.66669 -58,-7 H 83 v 46 h 19 c 31.33333,1.33331 60.33333,6.33331 87,15 26.66667,8.66669 45.33333,16.66669 56,24 10.66667,7.33331 20,14.66669 28,22 1.33334,2 5.33334,3 12,3 6,0 11.66666,-2 17,-6 V 361 l 1,-300 c 4.66666,-4.666668 8.66666,-7.666668 12,-9 3.33334,-1.333332 11.33334,-2.666668 24,-4 12.66666,-1.333332 33.33334,-2 62,-2 h 26 V 0 H 416 C 402,2 349,3 257,3 166.33333,3 114,2 100,0 H 88 v 46 h 26 c 14.66667,0 27.33333,0 38,0 10.66667,0 19,0.333332 25,1 6,0.666668 11.33333,1.666668 16,3 4.66667,1.333332 7.33333,2 8,2 0.66667,0 2.66667,1.666668 6,5 3.33333,3.333332 5.33333,4.666668 6,4 z"
         style="fill:#000000;fill-opacity:1;fill-rule:nonzero;stroke:#000000;stroke-width:1;stroke-linecap:butt;stroke-linejoin:miter;stroke-miterlimit:10;stroke-dasharray:none;stroke-opacity:0.016"
         transform="matrix(0.00711987,0,0,-0.00711987,332.91444,55.356273)"
         clip-path="url(#clipPath90)" /><path
         id="path91"
         d="m 109.5,270 h 220 c 0.68942,0 1.37225,0.0673 2.04843,0.20175 0.67618,0.13452 1.33277,0.33368 1.96973,0.59751 0.63696,0.26382 1.24206,0.58725 1.81531,0.97027 0.57324,0.38303 1.10363,0.8183 1.59115,1.30582 0.48752,0.48752 0.92276,1.01788 1.30579,1.59115 0.38302,0.57322 0.70645,1.17832 0.9703,1.81531 0.26383,0.63693 0.46302,1.29352 0.59751,1.96973 C 339.93274,279.12772 340,279.81055 340,280.5 v 49 c 0,0.68942 -0.0673,1.37225 -0.20178,2.04843 -0.13449,0.67618 -0.33368,1.33277 -0.59751,1.96973 -0.26385,0.63696 -0.58731,1.24206 -0.97033,1.81531 -0.383,0.57324 -0.81824,1.10363 -1.30576,1.59115 -0.48752,0.48752 -1.01791,0.92276 -1.59118,1.30579 -0.57322,0.38302 -1.17832,0.70645 -1.81528,0.9703 -0.63696,0.26383 -1.29355,0.46302 -1.96973,0.59751 C 330.87225,339.93274 330.18942,340 329.5,340 h -220 c -0.68944,0 -1.37226,-0.0673 -2.04845,-0.20178 -0.6762,-0.13449 -1.33278,-0.33368 -1.96973,-0.59751 -0.63696,-0.26385 -1.24207,-0.58731 -1.81532,-0.97033 -0.57325,-0.383 -1.10362,-0.81824 -1.59113,-1.30576 -0.48751,-0.48752 -0.92278,-1.01791 -1.30582,-1.59118 -0.38302,-0.57322 -0.70645,-1.17832 -0.970295,-1.81528 -0.263832,-0.63696 -0.463005,-1.29355 -0.597503,-1.96973 C 99.067253,330.87225 99,330.18942 99,329.5 v -49 c 0,-0.68945 0.06725,-1.37228 0.201752,-2.04849 0.134498,-0.67618 0.333671,-1.33277 0.597511,-1.96973 0.263837,-0.63696 0.587267,-1.24206 0.970297,-1.81531 0.38304,-0.57324 0.8183,-1.1036 1.30581,-1.59112 0.48751,-0.48752 1.01788,-0.92276 1.59113,-1.30579 0.57325,-0.38302 1.17836,-0.70648 1.81531,-0.9703 0.63696,-0.26383 1.29353,-0.46299 1.96974,-0.59751 C 108.12774,270.06726 108.81056,270 109.5,270 Z"
         style="fill:#fad9d5;fill-opacity:0.5;fill-rule:nonzero;stroke:#000000;stroke-width:1;stroke-linecap:butt;stroke-linejoin:miter;stroke-miterlimit:10;stroke-dasharray:none;stroke-opacity:0.5"
         transform="matrix(0.85836774,0,0,0.85836774,-23.213285,-12.47634)"
         clip-path="url(#clipPath92)" /><path
         id="path93"
         d="M 109.5,330 H 323.13"
         style="fill:none;stroke:#000000;stroke-width:1;stroke-linecap:butt;stroke-linejoin:miter;stroke-miterlimit:10;stroke-dasharray:none;stroke-opacity:1"
         transform="matrix(0.85836774,0,0,0.85836774,-23.213285,-12.47634)"
         clip-path="url(#clipPath94)" /><path
         id="path95"
         d="m 328.38,330 -7,3.5 1.75,-3.5 -1.75,-3.5 z"
         style="fill:#000000;fill-opacity:1;fill-rule:nonzero;stroke:#000000;stroke-width:1;stroke-linecap:butt;stroke-linejoin:miter;stroke-miterlimit:10;stroke-dasharray:none;stroke-opacity:1"
         transform="matrix(0.85836774,0,0,0.85836774,-23.213285,-12.47634)"
         clip-path="url(#clipPath96)" /><path
         id="path97"
         d="M 130,330 V 320 310"
         style="fill:none;stroke:#000000;stroke-width:1;stroke-linecap:butt;stroke-linejoin:miter;stroke-miterlimit:10;stroke-dasharray:none;stroke-opacity:1"
         transform="matrix(0.85836774,0,0,0.85836774,-23.213285,-12.47634)"
         clip-path="url(#clipPath98)" /><path
         id="path99"
         d="M 160,330 V 320 310"
         style="fill:none;stroke:#000000;stroke-width:1;stroke-linecap:butt;stroke-linejoin:miter;stroke-miterlimit:10;stroke-dasharray:none;stroke-opacity:1"
         transform="matrix(0.85836774,0,0,0.85836774,-23.213285,-12.47634)"
         clip-path="url(#clipPath100)" /><path
         id="path101"
         d="M 190,330 V 320 310"
         style="fill:none;stroke:#000000;stroke-width:1;stroke-linecap:butt;stroke-linejoin:miter;stroke-miterlimit:10;stroke-dasharray:none;stroke-opacity:1"
         transform="matrix(0.85836774,0,0,0.85836774,-23.213285,-12.47634)"
         clip-path="url(#clipPath102)" /><path
         id="path103"
         d="M 220,330 V 320 310"
         style="fill:none;stroke:#000000;stroke-width:1;stroke-linecap:butt;stroke-linejoin:miter;stroke-miterlimit:10;stroke-dasharray:none;stroke-opacity:1"
         transform="matrix(0.85836774,0,0,0.85836774,-23.213285,-12.47634)"
         clip-path="url(#clipPath104)" /><path
         id="path105"
         d="m 120,290 h 20 v 20 h -20 z"
         style="fill:#ffffff;fill-opacity:1;fill-rule:nonzero;stroke:#000000;stroke-width:1;stroke-linecap:butt;stroke-linejoin:miter;stroke-miterlimit:10;stroke-dasharray:none;stroke-opacity:1"
         transform="matrix(0.85836774,0,0,0.85836774,-23.213285,-12.47634)"
         clip-path="url(#clipPath106)" /><path
         id="path107"
         d="m 58,-216 c -22,0 -33.666666,10 -35,30 0,6.66667 16.666664,77.33333 50,212 33.33334,134.66667 51.33334,204 54,208 10.66667,36.66666 29,72.33334 55,107 46.66667,57.33334 99.66666,90.66666 159,100 1.33334,0 4,0 8,0 4,0 7.33334,0.33334 10,1 48.66666,0 86,-16 112,-48 26,-32 39,-71.33334 39,-118 0,-38 -8,-75 -24,-111 C 470,129 449.66666,98.666672 425,74 400.33334,49.333332 373.66666,29 345,13 316.33334,-3 290,-10.666667 266,-10 h -11 -7 c -34,0 -61.66667,15 -83,45 l -5,6 -27,-112 c -16.66667,-64.66667 -26.33334,-101.33333 -29,-110 -2.66666,-8.66667 -6.666664,-15.66667 -12,-21 -10.666664,-9.33333 -22,-14 -34,-14 z m 366,538 c 0,24.66666 -5.66666,44.66666 -17,60 -11.33334,15.33334 -28,23 -50,23 -23.33334,0 -46.66666,-9.66666 -70,-29 -23.33334,-19.33334 -42,-44.66666 -56,-76 -9.33333,-20.66666 -22,-64 -38,-130 l -17,-68 c 11.33333,-50.666668 39.33333,-76 84,-76 25.33334,0 50,12 74,36 22,20 40.33334,52 55,96 14.66666,44 24.33334,80 29,108 4.66666,28 6.66666,46.66666 6,56 z"
         style="fill:#000000;fill-opacity:1;fill-rule:nonzero;stroke:#000000;stroke-width:1;stroke-linecap:butt;stroke-linejoin:miter;stroke-miterlimit:10;stroke-dasharray:none;stroke-opacity:0.0271"
         transform="matrix(0.01206301,0,0,-0.01206301,84.511862,248.22114)"
         clip-path="url(#clipPath108)" /><path
         id="path109"
         d="m 150,290 h 20 v 20 h -20 z"
         style="fill:#ffffff;fill-opacity:1;fill-rule:nonzero;stroke:#000000;stroke-width:1;stroke-linecap:butt;stroke-linejoin:miter;stroke-miterlimit:10;stroke-dasharray:none;stroke-opacity:1"
         transform="matrix(0.85836774,0,0,0.85836774,-23.213285,-12.47634)"
         clip-path="url(#clipPath110)" /><path
         id="path111"
         d="m 31,249 c -13.333334,0 -20,3 -20,9 0,11.33334 5,26.66666 15,46 10,19.33334 23.333332,39.66666 40,61 16.666672,21.33334 37.66666,39 63,53 25.33333,14 51,21.66666 77,23 18,0 29,-0.33334 33,-1 32,-7.33334 58.33334,-25.33334 79,-54 20.66666,-28.66666 38.33334,-72.33334 53,-131 9.33334,-40 14,-68.33333 14,-85 0,-2.66667 0.33334,-4 1,-4 l 12,27 c 13.33334,34 28.33334,69.66666 45,107 16.66666,37.33334 31,67.66666 43,91 12,23.33334 19.33334,36.33334 22,39 1.33334,0.66666 6.66669,1 16,1 h 13 c 4,-4 6,-7 6,-9 0,-2.66666 -7,-17.33334 -21,-44 C 508,351.33334 488.33334,309 463,251 437.66666,193 413.66666,133 391,71 387,60.333332 382.66666,38.666668 378,6 c -4.66666,-32.666668 -11.66666,-68 -21,-106 -10.66666,-43.33334 -19.66666,-73.33333 -27,-90 -7.33334,-16.66667 -16.33334,-25.33333 -27,-26 -11.33334,0 -17,9.33333 -17,28 0,33.33334 18,106.666664 54,220 l 6,19 1,18 c 0.66666,6.666664 1,17 1,31 0,104.66667 -19,177 -57,217 -26.66666,25.33334 -58.33333,38 -95,38 -32,0 -61.33333,-8.66666 -88,-26 -26.666672,-17.33334 -45.666664,-40.33334 -57,-69 -1.333332,-6 -2.666668,-9 -4,-9 -1.333332,-1.33333 -6.666664,-2 -16,-2 z"
         style="fill:#000000;fill-opacity:1;fill-rule:nonzero;stroke:#000000;stroke-width:1;stroke-linecap:butt;stroke-linejoin:miter;stroke-miterlimit:10;stroke-dasharray:none;stroke-opacity:0.0271"
         transform="matrix(0.01206467,0,0,-0.01206467,110.26657,248.20858)"
         clip-path="url(#clipPath112)" /><path
         id="path113"
         d="m 180,290 h 20 v 20 h -20 z"
         style="fill:#ffffff;fill-opacity:1;fill-rule:nonzero;stroke:#000000;stroke-width:1;stroke-linecap:butt;stroke-linejoin:miter;stroke-miterlimit:10;stroke-dasharray:none;stroke-opacity:1"
         transform="matrix(0.85836774,0,0,0.85836774,-23.213285,-12.47634)"
         clip-path="url(#clipPath114)" /><path
         id="path115"
         d="m 35,200 c 0,68 13,139.66666 39,215 26,75.33334 61.33333,140.33331 106,195 44.66667,54.66669 91,86 139,94 0.66666,0 3.33334,0 8,0 4.66666,0 8.66666,0.33331 12,1 36,-2.66669 64,-19 84,-49 26,-40 39,-93.66669 39,-161 C 462,418.33331 447,340.33334 417,261 387,181.66666 348.66666,116.66667 302,66 255.33333,15.333332 210.66667,-10 168,-10 h -7 c -24,0 -44.66666,6.666666 -62,20 -17.333336,13.333334 -30.333336,31 -39,53 -8.666668,22 -15,44.33333 -19,67 -4,22.66667 -6,46 -6,70 z m 348,366 c 0,68 -17.66666,102 -53,102 -24,0 -47.33334,-15 -70,-45 -22.66667,-30 -41.33333,-64 -56,-102 -14.66667,-38 -26,-71.33334 -34,-100 -8,-28.66666 -12.33333,-45.33334 -13,-50 32.66667,-0.66666 65,-1 97,-1 l 97,1 c 0.66666,0.66666 3.33334,11.66666 8,33 4.66666,21.33334 10,48 16,80 6,32 8.66666,59.33331 8,82 z M 113,132 c 0,-70.666672 17.66666,-106 53,-106 10,0 20.66667,3.333332 32,10 11.33333,6.666668 25,19.333332 41,38 16,18.666672 32,47.66666 48,87 16,39.33334 32,88 48,146 l 5,17 H 145 c 0,-2 -3,-14.66666 -9,-38 -6,-23.33334 -11.33334,-49.33333 -16,-78 -4.66666,-28.66667 -7,-54 -7,-76 z"
         style="fill:#000000;fill-opacity:1;fill-rule:nonzero;stroke:#000000;stroke-width:1;stroke-linecap:butt;stroke-linejoin:miter;stroke-miterlimit:10;stroke-dasharray:none;stroke-opacity:0.0272"
         transform="matrix(0.01206794,0,0,-0.01206794,136.87229,247.96686)"
         clip-path="url(#clipPath116)" /><path
         id="path117"
         d="m 210,290 h 20 v 20 h -20 z"
         style="fill:#ffffff;fill-opacity:1;fill-rule:nonzero;stroke:#000000;stroke-width:1;stroke-linecap:butt;stroke-linejoin:miter;stroke-miterlimit:10;stroke-dasharray:none;stroke-opacity:1"
         transform="matrix(0.85836774,0,0,0.85836774,-23.213285,-12.47634)"
         clip-path="url(#clipPath118)" /><path
         id="path119"
         d="m 58,-216 c -22,0 -33.666666,10 -35,30 0,6.66667 16.666664,77.33333 50,212 33.33334,134.66667 51.33334,204 54,208 10.66667,36.66666 29,72.33334 55,107 46.66667,57.33334 99.66666,90.66666 159,100 1.33334,0 4,0 8,0 4,0 7.33334,0.33334 10,1 48.66666,0 86,-16 112,-48 26,-32 39,-71.33334 39,-118 0,-38 -8,-75 -24,-111 C 470,129 449.66666,98.666672 425,74 400.33334,49.333332 373.66666,29 345,13 316.33334,-3 290,-10.666667 266,-10 h -11 -7 c -34,0 -61.66667,15 -83,45 l -5,6 -27,-112 c -16.66667,-64.66667 -26.33334,-101.33333 -29,-110 -2.66666,-8.66667 -6.666664,-15.66667 -12,-21 -10.666664,-9.33333 -22,-14 -34,-14 z m 366,538 c 0,24.66666 -5.66666,44.66666 -17,60 -11.33334,15.33334 -28,23 -50,23 -23.33334,0 -46.66666,-9.66666 -70,-29 -23.33334,-19.33334 -42,-44.66666 -56,-76 -9.33333,-20.66666 -22,-64 -38,-130 l -17,-68 c 11.33333,-50.666668 39.33333,-76 84,-76 25.33334,0 50,12 74,36 22,20 40.33334,52 55,96 14.66666,44 24.33334,80 29,108 4.66666,28 6.66666,46.66666 6,56 z"
         style="fill:#000000;fill-opacity:1;fill-rule:nonzero;stroke:#000000;stroke-width:1;stroke-linecap:butt;stroke-linejoin:miter;stroke-miterlimit:10;stroke-dasharray:none;stroke-opacity:0.0272"
         transform="matrix(0.01206672,0,0,-0.01206672,158.33993,248.22155)"
         clip-path="url(#clipPath120)" /><path
         id="path121"
         d="m 56,237 c 0,0 0,4.33333 0,13 0,8.66666 4.666664,15.33334 14,20 h 299 v 150 l 1,150 c 6.66666,8.66669 13,13 19,13 8.66666,0 15.33334,-5 20,-15 V 270 h 298 c 10,-5.33334 15,-12 15,-20 0,-8 -5,-14.66667 -15,-20 H 409 V -68 c -5.33334,-9.333336 -11.33334,-14 -18,-14 h -2 -2 c -8,0 -14,4.666664 -18,14 V 230 H 70 c -9.333336,4.66667 -14,11.33333 -14,20 z"
         style="fill:#000000;fill-opacity:1;fill-rule:nonzero;stroke:#000000;stroke-width:1;stroke-linecap:butt;stroke-linejoin:miter;stroke-miterlimit:10;stroke-dasharray:none;stroke-opacity:0.0192"
         transform="matrix(0.00853117,0,0,-0.00853117,164.97663,250.03155)"
         clip-path="url(#clipPath122)" /><path
         id="path123"
         d="M 0.80254248,-0.00159433 V -8.5934829 H 1.8583254 v 4.8966483 L 4.3521575,-6.2270729 H 5.717394 L 3.3327809,-3.9152724 5.954035,-0.00159433 H 4.6434079 L 2.6046547,-3.1871463 1.8583254,-2.4590201 v 2.45742577 z m 0,0"
         style="fill:#000000;fill-opacity:1;fill-rule:nonzero;stroke:none"
         aria-label="k"
         transform="matrix(0.85836774,0,0,0.85836774,72.494717,269.49746)"
         clip-path="url(#clipPath124)" /><path
         id="path125"
         d="M 0.80201837,-0.00159433 V -8.5934829 H 1.8578013 v 4.8966483 l 2.4938321,-2.5302383 h 1.3652365 l -2.3846132,2.3118005 2.6212542,3.91367807 H 4.6428838 L 2.6041306,-3.1871463 1.8578013,-2.4590201 v 2.45742577 z M 9.0025392,-1.385034 v -2.36641 H 6.6725355 V -4.7344143 H 9.0025392 V -7.064418 h 1.0011738 v 2.3300037 h 2.330003 v 0.9829703 h -2.330003 v 2.36641 z m 8.4826698,1.38343967 H 16.429426 V -6.7185581 c -0.254844,0.2457426 -0.591603,0.4869344 -1.001174,0.7281262 -0.414121,0.2457425 -0.782735,0.4277741 -1.110392,0.5460946 v -1.0193766 c 0.582501,-0.2775981 1.092189,-0.6098057 1.529065,-1.0011735 0.445977,-0.4004694 0.764532,-0.7872864 0.946564,-1.1650018 h 0.69172 z m 0,0"
         style="fill:#000000;fill-opacity:1;fill-rule:nonzero;stroke:none"
         aria-label="k+1"
         transform="matrix(0.85836774,0,0,0.85836774,233.1436,269.49746)"
         clip-path="url(#clipPath126)" /><path
         id="path127"
         d="M 250,330 V 320 310"
         style="fill:none;stroke:#000000;stroke-width:1;stroke-linecap:butt;stroke-linejoin:miter;stroke-miterlimit:10;stroke-dasharray:none;stroke-opacity:1"
         transform="matrix(0.85836774,0,0,0.85836774,-23.213285,-12.47634)"
         clip-path="url(#clipPath128)" /><path
         id="path129"
         d="m 240,290 h 20 v 20 h -20 z"
         style="fill:#ffffff;fill-opacity:1;fill-rule:nonzero;stroke:#000000;stroke-width:1;stroke-linecap:butt;stroke-linejoin:miter;stroke-miterlimit:10;stroke-dasharray:none;stroke-opacity:1"
         transform="matrix(0.85836774,0,0,0.85836774,-23.213285,-12.47634)"
         clip-path="url(#clipPath130)" /><path
         id="path131"
         d="m 17,665 c 0,4.66669 3.666666,10.66669 11,18 h 193 c 129.33334,-1.33331 202,-3.33331 218,-6 14.66666,-2.66669 28.66666,-6 42,-10 13.33334,-4 25,-8.33331 35,-13 10,-4.66669 19.33331,-9.66669 28,-15 8.66669,-5.33331 16,-10.66669 22,-16 6,-5.33331 12,-10.66669 18,-16 6,-5.33331 10.33331,-10.33331 13,-15 2.66669,-4.66669 6,-9.33331 10,-14 4,-4.66669 6.33331,-9 7,-13 0.66669,-4 2,-7.66669 4,-11 l 3,-6 c 3.33331,-12 5,-29 5,-51 0,-33.33334 -4.33331,-59.33334 -13,-78 -23.33331,-47.33334 -70,-78.33334 -140,-93 l -18,-5 c 4.66666,-7.33334 10.66666,-17 18,-29 7.33334,-12 22,-34 44,-66 22,-32 42.33331,-60.33333 61,-85 18.66669,-24.66667 38.33331,-47.666664 59,-69 20.66669,-21.333336 37,-33.666668 49,-37 12.66669,-3.333334 19,-9.666666 19,-19 0,-6 -4,-11.6666665 -12,-17 H 510 C 505.33334,3.666667 470,57 404,159 L 306,310 H 268 V 183 c 1.33334,-77.33334 2.33334,-118.666664 3,-124 2,-11.333336 8.66666,-18.333332 20,-21 2.66666,-0.666668 12,-1.666668 28,-3 16.66666,0 28,-2.333332 34,-7 6,-7.333334 6,-15.666666 0,-25 l -7,-4 H 28 c -8,4 -12,9.666666 -12,17 0,12.666668 13,19 39,19 27.333336,2 42.666664,7.666664 46,17 3.33334,5.333332 5,101.66666 5,289 0,187.33337 -1.66666,284.33331 -5,291 -4,8.66669 -19.333328,14 -46,16 -25.333334,0 -38,5.66669 -38,17 z M 241,35 c -2,4.666668 -3.33333,8 -4,10 -0.66667,2 -1.33333,13 -2,33 -0.66667,20 -1.33333,48.33333 -2,85 -0.66667,36.66667 -0.66667,94.66666 0,174 v 284 l 4,14 7,13 H 133 c 2,-4.66669 3.33333,-8 4,-10 0.66667,-2 1.33333,-13.66669 2,-35 0.66667,-21.33331 1.33333,-50 2,-86 0.66667,-36 0.66667,-94.66666 0,-176 0,-140 -0.33333,-224 -1,-252 -0.66667,-28 -2.66667,-45.333332 -6,-52 -0.66667,-0.666668 -1,-1.333332 -1,-2 z m 216,461 c 0,29.33331 -2.66666,54 -8,74 -5.33334,20 -13.33334,35 -24,45 -10.66666,10 -19,16.33331 -25,19 -6,2.66669 -13.66666,5.66669 -23,9 -2,0 -14.66666,1.66669 -38,5 -26,0 -45.33334,-4.33331 -58,-13 -6.66666,-4.66669 -10.33334,-13 -11,-25 -0.66666,-12 -1.33334,-55 -2,-129 V 346 h 16 c 28.66666,0 59,2 91,6 30.66666,8 52,21.33334 64,40 12,18.66666 18,53.33334 18,104 z m 35,41 c 0,0 0,-13.66669 0,-41 0,-27.33334 -1.33334,-50.33334 -4,-69 -2.66666,-18.66666 -6,-31.33334 -10,-38 -4,-6.66666 -7,-12.66666 -9,-18 -2,-5.33334 -3.66666,-8.66666 -5,-10 0,-0.66666 0.33334,-1 1,-1 2.66666,0 13.33334,3.33334 32,10 64,20 96,61.66666 96,125 0,64.66669 -38.66669,109.66669 -116,135 l -20,7 4,-11 c 8.66666,-10 17.66666,-31.66669 27,-65 2.66666,-16 4,-37.66669 4,-65 z M 464,243 c -35.33334,49.33334 -53.33334,74 -54,74 -4,0 -7,-0.66666 -9,-2 -11.33334,0 -21.66666,-1 -31,-3 H 346 L 526,35 h 93 L 606,50 C 570.66669,89.333336 523.33331,153.66666 464,243 Z"
         style="fill:#000000;fill-opacity:1;fill-rule:nonzero;stroke:#000000;stroke-width:1;stroke-linecap:butt;stroke-linejoin:miter;stroke-miterlimit:10;stroke-dasharray:none;stroke-opacity:0.0272"
         transform="matrix(0.01207451,0,0,-0.01207451,186.65763,248.56058)"
         clip-path="url(#clipPath132)" /><path
         id="path133"
         d="M 280,330 V 320 310"
         style="fill:none;stroke:#000000;stroke-width:1;stroke-linecap:butt;stroke-linejoin:miter;stroke-miterlimit:10;stroke-dasharray:none;stroke-opacity:1"
         transform="matrix(0.85836774,0,0,0.85836774,-23.213285,-12.47634)"
         clip-path="url(#clipPath134)" /><path
         id="path135"
         d="m 270,290 h 20 v 20 h -20 z"
         style="fill:#ffffff;fill-opacity:1;fill-rule:nonzero;stroke:#000000;stroke-width:1;stroke-linecap:butt;stroke-linejoin:miter;stroke-miterlimit:10;stroke-dasharray:none;stroke-opacity:1"
         transform="matrix(0.85836774,0,0,0.85836774,-23.213285,-12.47634)"
         clip-path="url(#clipPath136)" /><path
         id="path137"
         d="m 12,666 c 0,6 4,11.66669 12,17 h 558 c 5.33331,-2 9,-5.66669 11,-11 v -84 c 0,-49.33331 -0.66669,-78 -2,-86 -1.33331,-8 -6.66669,-12 -16,-12 -5.33331,0 -9.33331,1.66666 -12,5 -2.66669,3.33334 -5.33331,10.66666 -8,22 -2,26 -14.66669,50.33331 -38,73 -20.66666,22 -44.66666,36.66669 -72,44 -27.33334,7.33331 -62.33334,12 -105,14 h -58 c -10.66666,-8 -16.66666,-17.33331 -18,-28 -1.33334,-10.66669 -2.66666,-53.33331 -4,-128 V 370 h 17 c 34.66666,3.33334 61.66666,10.33334 81,21 19.33334,10.66666 34.66666,26.66666 46,48 10.66666,27.33334 16,49.66666 16,67 0,15.33331 5.33334,23 16,23 6,0 11,-2.66669 15,-8 2.66666,-2.66669 4,-56 4,-160 0,-18.66666 0,-39.66666 0,-63 0,-23.33334 0.33334,-38.33334 1,-45 0,-24 -1,-39.33333 -3,-46 -2,-6.66667 -7.33334,-10 -16,-10 -11.33334,-0.66667 -17,6 -17,20 0,15.33333 -4.66666,33 -14,53 -19.33334,38.66666 -60,60.33334 -122,65 H 260 V 201 c 0.66666,-18 1,-40.33333 1,-67 0.66666,-40.666672 1.66666,-65 3,-73 1.33334,-8 6,-15.666668 14,-23 2,-1.333332 3.33334,-2.333332 4,-3 h 49 c 46,0 85.33334,5 118,15 81.33331,28.666672 132.33331,71.66666 153,129 2,16 8.66669,24 20,24 4.66669,0 8.66669,-2 12,-6 3.33331,-4 5.33331,-8.66667 6,-14 -1.33331,-1.33333 -6.66669,-30.66666 -16,-88 C 614.66669,37.666664 608,7 604,3 l -4,-4 H 24 c -8,4 -12,9.666666 -12,17 0,12.666668 13,19 39,19 27.333336,2 42.666664,7.666664 46,17 3.33334,5.333332 5,101.66666 5,289 0,187.33337 -1.66666,284.33331 -5,291 -4,8.66669 -19.333328,14 -46,16 -26,0 -39,6 -39,18 z M 137,341 c 0,-140 -0.33333,-224 -1,-252 -0.66667,-28 -2.66667,-45.333332 -6,-52 -0.66667,-0.666668 -1,-1.333332 -1,-2 h 106 c -1.33333,4 -2.66667,8.333332 -4,13 l -5,13 v 562 l 5,12 4,13 H 129 c 2,-4.66669 3.33333,-8 4,-10 0.66667,-2 1.33333,-13.66669 2,-35 0.66667,-21.33331 1.33333,-50 2,-86 0.66667,-36 0.66667,-94.66666 0,-176 z m 420,262 v 45 h -53 c 0,-1.33331 3.66666,-4.33331 11,-9 8,-3.33331 17,-10 27,-20 z M 420,317 v 80 l -14,-14 c -8,-8.66666 -16.66666,-15.33334 -26,-20 l -14,-8 c 4.66666,-3.33334 10,-6.33334 16,-9 12,-8.66666 21,-14.66666 27,-18 z m 162,-256 4,27 c -0.66669,0 -2,-1.666664 -4,-5 C 565.33331,68.333336 546.66669,56 526,46 l -15,-9 31,-2 h 35 c 0,0.666668 0.33331,2 1,4 0.66669,2 1.33331,5.333332 2,10 0.66669,4.666668 1.33331,8.666668 2,12 z"
         style="fill:#000000;fill-opacity:1;fill-rule:nonzero;stroke:#000000;stroke-width:1;stroke-linecap:butt;stroke-linejoin:miter;stroke-miterlimit:10;stroke-dasharray:none;stroke-opacity:0.0271"
         transform="matrix(0.01206476,0,0,-0.01206476,212.40864,248.55726)"
         clip-path="url(#clipPath138)" /><path
         id="path139"
         d="M 362.92999,122.93 C 362.91,107.64333 365.26666,100 370,100 c 4.73334,0 7.09332,6.02 7.07999,18.06"
         style="fill:none;stroke:#000000;stroke-width:1;stroke-linecap:butt;stroke-linejoin:miter;stroke-miterlimit:10;stroke-dasharray:none;stroke-opacity:1"
         transform="matrix(0.85836774,0,0,0.85836774,-23.213285,-12.47634)"
         clip-path="url(#clipPath140)" /><path
         id="path141"
         d="m 377.07001,121.81 -1.66001,-5 1.66999,1.25 1.67001,-1.25 z"
         style="fill:#000000;fill-opacity:1;fill-rule:nonzero;stroke:#000000;stroke-width:1;stroke-linecap:butt;stroke-linejoin:miter;stroke-miterlimit:10;stroke-dasharray:none;stroke-opacity:1"
         transform="matrix(0.85836774,0,0,0.85836774,-23.213285,-12.47634)"
         clip-path="url(#clipPath142)" /><path
         id="path143"
         d="m 228,637 c -22.66667,0 -34.66667,1.33331 -36,4 -0.66667,1.33331 -1,4 -1,8 0,16 3.66667,27 11,33 1.33333,0.66669 6.33333,1 15,1 36,-2 78.33334,-3 127,-3 94,0 148,1 162,3 h 12 c 4,-4 6,-7 6,-9 0,-2 -0.66669,-8 -2,-18 -3.33331,-10 -6.33331,-16.33331 -9,-19 h -38 c -46,-0.66669 -73,-3.66669 -81,-9 -4.66666,-2.66669 -9.33334,-12 -14,-28 C 375.33334,584 353,496 313,336 302.33334,292.66666 291,246.66667 279,198 267,149.33333 258,112.66667 252,88 l -9,-36 c 0,-2.666668 3,-4 9,-4 6,0 25.66666,-0.666668 59,-2 h 17 c 21.33334,0 38.33334,0.333332 51,1 12.66666,0.666668 29,3 49,7 20,4 36.66666,10 50,18 13.33334,8 28,19.333336 44,34 16,14.66666 30,33 42,55 10.66669,20 20.66669,42.33333 30,67 9.33331,24.66667 15,38.66666 17,42 3.33331,2 9,3 17,3 h 13 c 4,-6 6,-9.66666 6,-11 0,-1.33334 -6.66669,-21 -20,-59 C 613.66669,165 599,125 583,83 567,41 558.33331,16.333334 557,9 555.66669,5.6666665 554.33331,3.6666667 553,3 551.66669,2.3333333 546.33331,1.3333334 537,0 c -9.33331,-1.3333334 -23.66669,-1.6666667 -43,-1 -7.33334,0 -32.66666,0 -76,0 -43.33334,0 -84.66666,0.33333331 -124,1 H 116 C 60,0 32,3.333333 32,10 c 0,4.666667 0.666668,9.333332 2,14 3.333332,12.666668 6.666668,19.666668 10,21 2.666668,0.666668 7.666668,1 15,1 h 6 c 18,0 38,1 60,3 9.33333,2 15.66667,6 19,12 2,2.666668 26,95.33333 72,278 46,182.66669 69,279 69,289 0,4.66669 -19,7.66669 -57,9 z"
         style="fill:#000000;fill-opacity:1;fill-rule:nonzero;stroke:#000000;stroke-width:1;stroke-linecap:butt;stroke-linejoin:miter;stroke-miterlimit:10;stroke-dasharray:none;stroke-opacity:0.0214"
         transform="matrix(0.00950822,0,0,-0.00950822,281.08974,68.26658)"
         clip-path="url(#clipPath144)" /><path
         id="path145"
         d="m 39,168 c 0,38 6.333332,72.66667 19,104 12.666664,31.33334 29,57.33334 49,78 20,20.66666 42.33333,38 67,52 24.66667,14 48,24.33334 70,31 22,6.66666 43,9.66666 63,9 h 3 c 30,0 56,-7.33334 78,-22 22,-14.66666 33,-36.33334 33,-65 0,-60 -37,-99.33333 -111,-118 -32.66666,-8.66667 -77.33333,-13.33333 -134,-14 -24.66667,0 -37.33333,-0.66667 -38,-2 0,-1.33333 -2,-13 -6,-35 -4,-22 -6.33334,-41.33333 -7,-58 0,-31.333336 7,-56 21,-74 14,-18 35,-27.333334 63,-28 28,-0.666666 59,5.666666 93,19 34,13.333336 64.66666,35.333328 92,66 6,6.66666 10,10 12,10 2.66666,0 7,-3 13,-9 6,-6 9.33334,-10.66666 10,-14 0.66666,-3.333336 -2.33334,-8.666664 -9,-16 C 413.33334,74.666664 403.33334,65.666664 390,55 376.66666,44.333332 361.33334,34 344,24 326.66666,14 305.66666,5.666667 281,-1 256.33334,-7.666667 231,-11 205,-11 152.33333,-11 111.66667,6.6666641 83,42 54.333332,77.333336 39.666668,119.33333 39,168 Z m 334,185 c -4,34.66666 -26.66666,52 -68,52 -22,0 -42.33334,-4.66666 -61,-14 -18.66667,-9.33334 -33.66667,-20.66666 -45,-34 -11.33333,-13.33334 -21,-27 -29,-41 -8,-14 -13.33333,-26 -16,-36 -2.66667,-10 -4.33333,-16.33334 -5,-19 0,-0.66666 6.66667,-1 20,-1 75.33334,0 128,8 158,24 30,16 45.33334,39 46,69 z"
         style="fill:#000000;fill-opacity:1;fill-rule:nonzero;stroke:#000000;stroke-width:1;stroke-linecap:butt;stroke-linejoin:miter;stroke-miterlimit:10;stroke-dasharray:none;stroke-opacity:0.0214"
         transform="matrix(0.00950822,0,0,-0.00950822,287.56483,68.26658)"
         clip-path="url(#clipPath146)" /><path
         id="path147"
         d="m 33,157 c 0,67.33334 25.333332,131.33334 76,192 50.66667,60.66666 107.66666,91.33334 171,92 34,0 64,-16.33334 90,-49 10.66666,20 26,30 46,30 8.66666,0 16.33334,-2.66666 23,-8 6.66666,-5.33334 10,-12 10,-20 0,-8.66666 -12.33334,-62 -37,-160 -24.66666,-98 -37.33334,-153.333336 -38,-166 0,-16.666668 2.33334,-27.666668 7,-33 4.66666,-5.333334 11.66666,-8.333334 21,-9 6,0.666666 12.66666,3.666666 20,9 14,13.333336 27.66666,45.333328 41,96 4,13.33333 7.33334,20.33333 10,21 1.33334,0.66667 4.66666,1 10,1 h 4 c 12.66666,0 19,-3 19,-9 0,-4 -1.66666,-13 -5,-27 C 497.66666,103 491,85 481,63 471,41 460.33334,24.333334 449,13 440.33334,4.333333 429.66666,-2.6666665 417,-8 c -5.33334,-1.333333 -13.33334,-2 -24,-2 -22.66666,0 -41.66666,5 -57,15 -15.33334,10 -25.33334,20.333332 -30,31 l -6,15 c -0.66666,0.666668 -2,0.333332 -4,-1 -1.33334,-1.333332 -2.66666,-2.666668 -4,-4 C 252.66666,8.6666641 212.66667,-10 172,-10 135.33333,-10 103,3.3333321 75,30 47,56.666668 33,99 33,157 Z m 318,171 c 0,4 -1.66666,11.33334 -5,22 -3.33334,10.66666 -11,22.33334 -23,35 -12,12.66666 -27.33334,19.33334 -46,20 -23.33333,0 -45.66667,-10.33334 -67,-31 -21.33333,-20.66666 -38,-47.66666 -50,-81 -19.33333,-52.66667 -33,-107.33333 -41,-164 0,-2 0,-5.66666 0,-11 0,-5.33334 -0.33334,-9.33334 -1,-12 0,-30 6,-50.666664 18,-62 12,-11.333336 26.33333,-17.333334 43,-18 25.33333,0 50.33333,11 75,33 24.66666,22 39.33334,39 44,51 1.33334,2.66666 10.33334,38.33333 27,107 16.66666,68.66669 25.33334,105.66666 26,111 z"
         style="fill:#000000;fill-opacity:1;fill-rule:nonzero;stroke:#000000;stroke-width:1;stroke-linecap:butt;stroke-linejoin:miter;stroke-miterlimit:10;stroke-dasharray:none;stroke-opacity:0.0214"
         transform="matrix(0.00950822,0,0,-0.00950822,291.99565,68.26658)"
         clip-path="url(#clipPath148)" /><path
         id="path149"
         d="m 21,287 c 0.666666,2 1.333334,4.66666 2,8 0.666666,3.33334 2.333334,10.66666 5,22 2.666666,11.33334 6,21.66666 10,31 4,9.33334 9,20.33334 15,33 6,12.66666 12.666664,22.66666 20,30 7.333336,7.33334 16,14.66666 26,22 10,7.33334 21,10.33334 33,9 19.33333,0 36.33333,-4 51,-12 14.66667,-8 25,-15.33334 31,-22 6,-6.66666 9.66667,-13.33334 11,-20 1.33333,-4 2.33333,-6 3,-6 0.66667,0 3.33333,2.33334 8,7 32,34.66666 69,52 111,52 h 3 c 32,0 56,-13.66666 72,-41 5.33334,-12.66666 8,-25 8,-37 0,-20 -4.33334,-36 -13,-48 -8.66666,-12 -17.33334,-19.66666 -26,-23 -8.66666,-3.33334 -17,-4.66666 -25,-4 -13.33334,0 -24,3.66666 -32,11 -8,7.33334 -12,17 -12,29 0,32 18.66666,53.33334 56,64 -14.66666,8.66666 -26.66666,13 -36,13 -37.33334,0 -71.66666,-24.66666 -103,-74 -6.66667,-10.66666 -11.66667,-21.66666 -15,-33 C 220.66667,286.66666 209.33333,242.33334 190,165 167.33333,71.666664 154.33333,22 151,16 c -8.66667,-18 -23,-27 -43,-27 -8.666664,0 -15.666664,2 -21,6 -5.333336,4 -9,8 -11,12 -2,4 -2.666664,7.333333 -2,10 0,8.666668 13.333328,66 40,172 26.66667,106 40,165 40,177 0,26 -8.66667,39 -26,39 -14,0 -26,-9.33334 -36,-28 C 82,358.33334 74,338 68,316 62,294 58.333332,282 57,280 55.666668,278.66666 50.333336,278 41,278 H 27 c -4,4 -6,7 -6,9 z"
         style="fill:#000000;fill-opacity:1;fill-rule:nonzero;stroke:#000000;stroke-width:1;stroke-linecap:butt;stroke-linejoin:miter;stroke-miterlimit:10;stroke-dasharray:none;stroke-opacity:0.0214"
         transform="matrix(0.00950822,0,0,-0.00950822,297.02549,68.26658)"
         clip-path="url(#clipPath150)" /><path
         id="path151"
         d="m 21,287 c 0.666666,4 1.666666,9.33334 3,16 1.333334,6.66666 5.333332,19.33334 12,38 6.666668,18.66666 13.333332,34.33334 20,47 6.666668,12.66666 17.666664,25 33,37 15.33334,12 30.66666,17.66666 46,17 24,0 44,-6 60,-18 16,-12 26,-23.33334 30,-34 4,-10.66666 6,-17.66666 6,-21 0,-1.33334 0.33333,-2 1,-2 l 11,11 c 40.66666,42.66666 87,64 139,64 36,0 65,-9 87,-27 22,-18 33.33334,-44.33334 34,-79 0.66666,-34.66666 -12,-87 -38,-157 -26,-70 -38.66666,-112.333336 -38,-127 0,-17.333336 5.66666,-26 17,-26 4,0 7,0.333334 9,1 19.33334,3.333334 36.66666,16 52,38 15.33331,22 27,48.66666 35,80 1.33331,5.33333 8,8 20,8 13.33331,0 20,-2.66667 20,-8 0,-0.66667 -1.33331,-5.66667 -4,-15 -5.33331,-19.33334 -12.66669,-38.333328 -22,-57 -9.33331,-18.666668 -24.66669,-37.333332 -46,-56 -21.33334,-18.6666679 -44.33334,-27.666667 -69,-27 -31.33334,0 -54,9 -68,27 -14,18 -21,36.666664 -21,56 0,12.666664 12,52.66666 36,120 24,67.33334 36.33334,118 37,152 0,39.33334 -14.66666,59 -44,59 h -5 C 316.66666,404 268.33334,370.33334 229,303 L 222,291 189,157 C 167,69.666664 154.33333,22.666668 151,16 c -8.66667,-18 -23,-27 -43,-27 -8.666664,0 -15.666664,2 -21,6 -5.333336,4 -9,8 -11,12 -2,4 -2.666664,7.333333 -2,10 0,8.666668 12.666664,63 38,163 25.33333,100 38.66667,154.33334 40,163 0.66667,3.33334 1,11 1,23 0,26 -8,39 -24,39 -25.33334,0 -46.333328,-33.33331 -63,-100 -4,-13.33334 -6,-20.33334 -6,-21 -1.333332,-4 -7.666664,-6 -19,-6 H 27 c -4,4 -6,7 -6,9 z"
         style="fill:#000000;fill-opacity:1;fill-rule:nonzero;stroke:#000000;stroke-width:1;stroke-linecap:butt;stroke-linejoin:miter;stroke-miterlimit:10;stroke-dasharray:none;stroke-opacity:0.0214"
         transform="matrix(0.00950822,0,0,-0.00950822,301.3137,68.26658)"
         clip-path="url(#clipPath152)" /></g></g></svg>
